<?xml version="1.0" encoding="UTF-8" standalone="no"?>
<svg
   xmlns:dc="http://purl.org/dc/elements/1.1/"
   xmlns:cc="http://creativecommons.org/ns#"
   xmlns:rdf="http://www.w3.org/1999/02/22-rdf-syntax-ns#"
   xmlns:svg="http://www.w3.org/2000/svg"
   xmlns="http://www.w3.org/2000/svg"
   xmlns:sodipodi="http://sodipodi.sourceforge.net/DTD/sodipodi-0.dtd"
   xmlns:inkscape="http://www.inkscape.org/namespaces/inkscape"
   width="90"
   height="87.779716"
   viewBox="0 0 90 87.779716"
   fill="none"
   version="1.1"
   id="svg4"
   sodipodi:docname="github_logo.svg"
   inkscape:version="1.0.1 (3bc2e813f5, 2020-09-07)">
  <metadata
     id="metadata10">
    <rdf:RDF>
      <cc:Work
         rdf:about="">
        <dc:format>image/svg+xml</dc:format>
        <dc:type
           rdf:resource="http://purl.org/dc/dcmitype/StillImage" />
      </cc:Work>
    </rdf:RDF>
  </metadata>
  <defs
     id="defs8" />
  <sodipodi:namedview
     pagecolor="#ffffff"
     bordercolor="#666666"
     borderopacity="1"
     objecttolerance="10"
     gridtolerance="10"
     guidetolerance="10"
     inkscape:pageopacity="0"
     inkscape:pageshadow="2"
     inkscape:window-width="1920"
     inkscape:window-height="1177"
     id="namedview6"
     showgrid="false"
     inkscape:zoom="0.73535156"
     inkscape:cx="512"
     inkscape:cy="512"
     inkscape:window-x="-8"
     inkscape:window-y="-8"
     inkscape:window-maximized="1"
     inkscape:current-layer="svg4" />
  <path
     fill-rule="evenodd"
     clip-rule="evenodd"
     d="M 45,0 C 20.1375,0 0,20.1375 0,45 c 0,19.9125 12.88125,36.73125 30.76875,42.69375 2.25,0.39375 3.09375,-0.95625 3.09375,-2.1375 0,-1.06875 -0.05625,-4.6125 -0.05625,-8.38125 C 22.5,79.25625 19.575,74.41875 18.675,71.8875 18.16875,70.59375 15.975,66.6 14.0625,65.53125 c -1.575,-0.84375 -3.825,-2.925 -0.05625,-2.98125 3.54375,-0.05625 6.075,3.2625 6.91875,4.6125 4.05,6.80625 10.51875,4.89375 13.10625,3.7125 C 34.425,67.95 35.60625,65.98125 36.9,64.85625 26.8875,63.73125 16.425,59.85 16.425,42.6375 c 0,-4.89375 1.74375,-8.94375 4.6125,-12.09375 -0.45,-1.125 -2.025,-5.7375 0.45,-11.925 0,0 3.76875,-1.18125 12.375,4.6125 3.6,-1.0125 7.425,-1.51875 11.25,-1.51875 3.825,0 7.65,0.50625 11.25,1.51875 8.60625,-5.85 12.375,-4.6125 12.375,-4.6125 2.475,6.1875 0.9,10.8 0.45,11.925 2.86875,3.15 4.6125,7.14375 4.6125,12.09375 0,17.26875 -10.51875,21.09375 -20.53125,22.21875 1.63125,1.40625 3.0375,4.10625 3.0375,8.325 0,6.01875 -0.05625,10.85625 -0.05625,12.375 0,1.18125 0.84375,2.5875 3.09375,2.1375 C 77.11875,81.73125 90,64.85625 90,45 90,20.1375 69.8625,0 45,0 Z"
     fill="#1b1f23"
     id="path2"
     style="stroke-width:5.625" />
</svg>
