<?xml version="1.0" encoding="UTF-8" standalone="no"?>
<svg
   xmlns:dc="http://purl.org/dc/elements/1.1/"
   xmlns:cc="http://creativecommons.org/ns#"
   xmlns:rdf="http://www.w3.org/1999/02/22-rdf-syntax-ns#"
   xmlns:svg="http://www.w3.org/2000/svg"
   xmlns="http://www.w3.org/2000/svg"
   xmlns:xlink="http://www.w3.org/1999/xlink"
   xmlns:sodipodi="http://sodipodi.sourceforge.net/DTD/sodipodi-0.dtd"
   xmlns:inkscape="http://www.inkscape.org/namespaces/inkscape"
   id="svg1398"
   version="1.1"
   viewBox="0 0 23.8125 21.467361"
   height="21.467361mm"
   width="23.8125mm"
   sodipodi:docname="matlab.svg"
   inkscape:version="1.0.1 (3bc2e813f5, 2020-09-07)">
  <sodipodi:namedview
     pagecolor="#ffffff"
     bordercolor="#666666"
     borderopacity="1"
     objecttolerance="10"
     gridtolerance="10"
     guidetolerance="10"
     inkscape:pageopacity="0"
     inkscape:pageshadow="2"
     inkscape:window-width="1920"
     inkscape:window-height="1177"
     id="namedview18"
     showgrid="false"
     inkscape:zoom="5.8878405"
     inkscape:cx="64.000005"
     inkscape:cy="59.945347"
     inkscape:window-x="-8"
     inkscape:window-y="-8"
     inkscape:window-maximized="1"
     inkscape:current-layer="svg1398"
     inkscape:document-rotation="0" />
  <defs
     id="defs1392">
    <linearGradient
       gradientUnits="userSpaceOnUse"
       y2="334.44583"
       x2="514.85358"
       y1="135.04791"
       x1="571.25574"
       id="linearGradient2415-8"
       xlink:href="#linearGradient2413"
       gradientTransform="matrix(0.11098993,0,0,0.11098993,-43.769152,-11.101653)" />
    <linearGradient
       id="linearGradient2413">
      <stop
         id="stop2409"
         offset="0"
         style="stop-color:#78c4ff;stop-opacity:1;" />
      <stop
         id="stop2411"
         offset="1"
         style="stop-color:#d7aeff;stop-opacity:1" />
    </linearGradient>
    <linearGradient
       gradientUnits="userSpaceOnUse"
       y2="363.72601"
       x2="506.33658"
       y1="114.47861"
       x1="572.56433"
       id="linearGradient2407-1"
       xlink:href="#linearGradient2405"
       gradientTransform="matrix(0.11098993,0,0,0.11098993,-43.769152,-11.101653)" />
    <linearGradient
       id="linearGradient2405">
      <stop
         id="stop2401"
         offset="0"
         style="stop-color:#1a6cff;stop-opacity:1;" />
      <stop
         id="stop2403"
         offset="1"
         style="stop-color:#c522ff;stop-opacity:1" />
    </linearGradient>
  </defs>
  <metadata
     id="metadata1395">
    <rdf:RDF>
      <cc:Work
         rdf:about="">
        <dc:format>image/svg+xml</dc:format>
        <dc:type
           rdf:resource="http://purl.org/dc/dcmitype/StillImage" />
        <dc:title />
      </cc:Work>
    </rdf:RDF>
  </metadata>
  <g
     id="g18"
     transform="matrix(0.80878266,0,0,0.80878266,0,-0.85596162)">
    <path
       style="fill:url(#linearGradient2415-8);fill-opacity:1;stroke-width:1"
       d="m 13.531839,25.083931 c -0.02986,-0.06957 -0.12034,-0.287579 -0.201055,-0.484471 -0.08071,-0.196892 -0.168282,-0.406591 -0.194594,-0.466 -0.02631,-0.05941 -0.07438,-0.167928 -0.106816,-0.241157 -0.03244,-0.07323 -0.07578,-0.172086 -0.09633,-0.219685 -0.113193,-0.262247 -0.151954,-0.347983 -0.382233,-0.845456 -0.124547,-0.269061 -0.553239,-1.124119 -0.710002,-1.416153 -0.05646,-0.105181 -0.09685,-0.195537 -0.08974,-0.20079 0.0071,-0.0052 0.186664,-0.06718 0.399027,-0.137621 0.482645,-0.160086 0.893426,-0.35616 1.260732,-0.601772 0.782032,-0.522935 1.451145,-1.340759 1.841192,-2.2504 0.04648,-0.108393 0.05207,-0.122327 0.133444,-0.332858 0.02547,-0.06591 0.05626,-0.143794 0.06842,-0.173084 0.01216,-0.02929 0.03954,-0.107181 0.06086,-0.173086 0.02132,-0.0659 0.05337,-0.155777 0.07123,-0.199715 0.01786,-0.04394 0.04225,-0.103851 0.05421,-0.133141 0.01196,-0.02929 0.06515,-0.185069 0.118206,-0.346172 0.05306,-0.161103 0.124085,-0.370802 0.157839,-0.465999 0.03375,-0.0952 0.106172,-0.31688 0.160929,-0.492628 0.05475,-0.175749 0.108846,-0.343508 0.120201,-0.3728 0.02315,-0.05972 0.134284,-0.415957 0.18691,-0.599142 0.01893,-0.0659 0.06096,-0.203709 0.0934,-0.306229 0.03243,-0.102519 0.07381,-0.240322 0.09194,-0.306228 0.01814,-0.06591 0.04815,-0.167759 0.06671,-0.226343 0.01856,-0.05858 0.04689,-0.154445 0.06297,-0.213027 0.01608,-0.05858 0.06047,-0.21436 0.09865,-0.346171 0.03818,-0.131812 0.08189,-0.287588 0.09714,-0.346171 0.01525,-0.05858 0.03735,-0.136471 0.04913,-0.173086 0.02196,-0.06827 0.08745,-0.303252 0.137306,-0.492628 0.02595,-0.09856 0.04411,-0.16455 0.124618,-0.452685 0.01637,-0.05858 0.05984,-0.220351 0.0966,-0.359485 0.111195,-0.420826 0.122532,-0.462929 0.146987,-0.545884 0.01295,-0.04394 0.06734,-0.247647 0.120864,-0.452686 0.05352,-0.205041 0.108853,-0.41474 0.122956,-0.465999 0.0141,-0.05126 0.0324,-0.123157 0.04065,-0.159773 0.0083,-0.03661 0.05058,-0.2043732 0.09406,-0.3727982 0.04348,-0.1684261 0.08928,-0.35416 0.101789,-0.4127427 0.01251,-0.058583 0.04265,-0.1784118 0.06698,-0.2662848 0.04238,-0.1530684 0.06393,-0.2398204 0.114058,-0.4593429 0.02177,-0.095339 0.0556,-0.2295305 0.109076,-0.4327131 0.01349,-0.051261 0.03677,-0.1471227 0.05173,-0.2130297 0.01496,-0.065906 0.05766,-0.2486429 0.09488,-0.4060844 0.03722,-0.1574414 0.09787,-0.4150723 0.134772,-0.5725138 0.0369,-0.1574403 0.07884,-0.3230561 0.0932,-0.3680326 0.01436,-0.044977 0.02611,-0.1040408 0.02611,-0.1312511 0,-0.027213 0.01129,-0.086276 0.02511,-0.1312534 0.02619,-0.085294 0.08498,-0.3330808 0.133114,-0.5610896 0.02832,-0.1341202 0.143525,-0.6544777 0.188663,-0.8521141 0.01338,-0.058583 0.05461,-0.256299 0.09161,-0.4393692 0.03701,-0.1830723 0.07882,-0.386781 0.09291,-0.4526868 0.01409,-0.065905 0.04976,-0.2336638 0.07926,-0.3727986 0.08064,-0.3803214 0.143517,-0.5550728 0.215803,-0.5997496 0.04909,-0.030337 0.146514,0.057616 0.196573,0.1774607 0.108892,0.2606965 0.10667,0.253652 0.217018,0.6885749 0.05017,0.1977163 0.102472,0.401425 0.116237,0.4526846 0.01376,0.05126 0.03727,0.1471227 0.05223,0.2130274 0.01496,0.065906 0.0583,0.2516397 0.0963,0.4127427 0.038,0.161103 0.07973,0.3408457 0.09272,0.3994284 0.05975,0.2694746 0.111828,0.4861747 0.13483,0.5610907 0.01381,0.044976 0.02511,0.1040397 0.02511,0.1312511 0,0.027213 0.01131,0.086276 0.02511,0.1312523 0.01381,0.044976 0.0444,0.1656558 0.06797,0.268175 0.02358,0.1025202 0.0532,0.2283406 0.06584,0.2796002 0.01957,0.079374 0.07714,0.3289453 0.187361,0.81217 0.01336,0.058583 0.05539,0.2383264 0.0934,0.3994294 0.03801,0.161103 0.07995,0.3408445 0.0932,0.3994272 0.01325,0.058583 0.05519,0.2383254 0.0932,0.3994284 0.03801,0.1611019 0.07973,0.3408456 0.09272,0.3994272 0.02402,0.1083051 0.09242,0.4034406 0.132701,0.5725149 0.01221,0.05126 0.05369,0.2310011 0.09218,0.3994275 0.03849,0.168426 0.08104,0.35416 0.09455,0.412743 0.01351,0.05858 0.04337,0.190393 0.06635,0.292913 0.06054,0.270062 0.0939,0.413607 0.120682,0.519257 0.01299,0.05126 0.05459,0.231002 0.09243,0.399428 0.110638,0.492412 0.160804,0.710977 0.226144,0.985256 0.01221,0.05126 0.05369,0.231003 0.09218,0.399429 0.03849,0.168424 0.08104,0.354158 0.09455,0.41274 0.01351,0.05858 0.04337,0.190396 0.06635,0.292915 0.02298,0.10252 0.05346,0.237326 0.06774,0.299572 0.01427,0.06224 0.03722,0.164097 0.05099,0.226343 0.02912,0.131594 0.101835,0.444518 0.134592,0.57917 0.02482,0.102009 0.112497,0.492115 0.17656,0.785541 0.02238,0.10252 0.0509,0.228339 0.06337,0.2796 0.02912,0.119707 0.10266,0.43524 0.133427,0.572514 0.01313,0.05858 0.04267,0.190393 0.06566,0.292913 0.02298,0.10252 0.05288,0.234331 0.06644,0.292915 0.01356,0.05858 0.03871,0.172418 0.0559,0.252971 0.01719,0.08055 0.0416,0.180785 0.05424,0.222744 0.01265,0.04196 0.01644,0.08689 0.0084,0.09986 -0.008,0.01296 -0.08276,0.02384 -0.166111,0.02416 -0.137305,4.44e-4 -0.540043,0.06138 -0.862038,0.130233 -0.229276,0.04902 -0.71897,0.227071 -0.953787,0.346783 -0.512098,0.261074 -0.963881,0.569562 -1.464561,1.000036 -0.247755,0.213014 -0.877391,0.842729 -1.238312,1.238464 -0.10018,0.109843 -0.237008,0.259794 -0.304063,0.333227 -0.06705,0.07343 -0.199576,0.223217 -0.294494,0.332856 -0.09492,0.10964 -0.17887,0.205336 -0.186564,0.212658 -0.0077,0.0073 -0.07975,0.0912 -0.160115,0.1864 -0.08037,0.0952 -0.152692,0.179078 -0.160717,0.186401 -0.008,0.0073 -0.13342,0.151116 -0.278654,0.319541 -0.145235,0.168426 -0.27063,0.31222 -0.278655,0.319543 -0.008,0.0073 -0.08035,0.0912 -0.160717,0.1864 -0.08037,0.0952 -0.152207,0.179077 -0.15964,0.1864 -0.0074,0.0073 -0.121321,0.133142 -0.253085,0.279599 -0.352288,0.391573 -1.025644,1.057133 -1.347025,1.331427 -0.275354,0.235013 -0.341973,0.288699 -0.58356,0.470271 -0.174572,0.131204 -0.551491,0.368527 -0.585301,0.368527 -0.01598,0 -0.05348,-0.05692 -0.08335,-0.126484 z"
       id="path2394-4" />
    <path
       id="path2349-4"
       style="fill:url(#linearGradient2407-1);fill-opacity:1;stroke-width:1"
       d="m 12.283234,13.900184 c 0.12449,-0.200956 0.239163,-0.389567 0.254832,-0.419136 0.01567,-0.02957 0.0606,-0.104449 0.09986,-0.166401 0.03925,-0.06195 0.07137,-0.11875 0.07137,-0.126214 0,-0.0075 0.05171,-0.09458 0.114899,-0.193586 0.0632,-0.09901 0.166425,-0.275878 0.2294,-0.393043 0.06297,-0.117166 0.123829,-0.225011 0.135233,-0.239656 0.02414,-0.03099 0.09939,-0.164543 0.240089,-0.426057 0.05516,-0.102521 0.14975,-0.276271 0.210206,-0.386113 0.189182,-0.343723 1.200456,-2.3919846 1.200456,-2.4314338 0,-0.00683 0.05991,-0.1397441 0.133143,-0.2953919 0.07323,-0.1556467 0.133143,-0.2884517 0.133143,-0.2951234 0,-0.00667 0.03064,-0.081384 0.06809,-0.1660309 0.03745,-0.084646 0.07817,-0.177868 0.09048,-0.2071605 0.01232,-0.029291 0.0424,-0.098719 0.06686,-0.1542849 0.133784,-0.3039781 0.387025,-0.9375907 0.387025,-0.9683383 0,-0.068759 -0.04089,-0.033064 -0.156571,0.1366919 -0.06415,0.094128 -0.136044,0.1927107 -0.159772,0.219073 -0.02373,0.026362 -0.07846,0.095853 -0.12162,0.1544237 -0.04316,0.058572 -0.08546,0.1124849 -0.09398,0.1198069 -0.0085,0.00731 -0.106995,0.12116 -0.218814,0.2529716 -0.410279,0.4836286 -1.173176,1.1849607 -1.464083,1.3459338 -0.140267,0.077615 -0.336589,0.1636003 -0.727609,0.3186776 -0.06259,0.024822 -0.338455,0.1310492 -0.592485,0.2281454 -0.53759,0.2054788 -1.013142,0.5208638 -1.51949,1.0077258 -0.265629,0.255405 -0.6693617,0.699332 -0.8978947,0.987284 -0.05812,0.07323 -0.11166,0.139134 -0.118983,0.146457 -0.07506,0.07506 -0.2645964,0.353987 -0.25314,0.372527 0.017652,0.02856 0.371562,0.302083 0.6525687,0.504344 0.109842,0.07906 0.205705,0.151165 0.213028,0.160231 0.0073,0.0091 0.07922,0.06384 0.15977,0.121719 0.08055,0.05788 0.158441,0.114736 0.173086,0.126346 0.04289,0.03399 0.317099,0.241221 0.395954,0.299231 0.03982,0.02929 0.272578,0.205044 0.517249,0.390561 0.244669,0.185518 0.468818,0.33818 0.49811,0.339249 0.04046,0.0015 0.107654,-0.08587 0.279599,-0.363429 z m -5.4546495,5.645249 c 0.078241,-0.04015 0.1462515,-0.08208 0.1511328,-0.0932 0.00488,-0.01111 0.019629,-0.02021 0.03277,-0.02021 0.042074,0 0.8148969,-0.521427 0.9977517,-0.673187 0.028805,-0.02391 0.1473325,-0.11628 0.2633936,-0.205273 0.5394166,-0.413607 1.2361167,-1.059768 1.8378234,-1.704509 0.452947,-0.485341 1.345327,-1.615551 1.345605,-1.704226 8e-5,-0.02197 -0.284341,-0.252163 -0.632021,-0.511542 -0.347679,-0.25938 -0.662103,-0.495256 -0.698716,-0.524166 -0.03662,-0.02891 -0.3798697,-0.287017 -0.762787,-0.57357 -0.6932209,-0.518763 -0.7906867,-0.574231 -0.8762,-0.498645 -0.013914,0.0123 -0.067237,0.03806 -0.1184973,0.05725 -0.124948,0.04678 -0.2277802,0.08934 -0.379166,0.156947 -0.069407,0.03099 -0.133502,0.05635 -0.1424334,0.05635 -0.00892,0 -0.056991,0.01797 -0.1068045,0.03994 -0.049811,0.02197 -0.131321,0.05792 -0.1811333,0.07989 -0.049812,0.02197 -0.097873,0.03994 -0.1068045,0.03994 -0.00892,0 -0.073025,0.02516 -0.1424323,0.05591 -0.1286307,0.05699 -0.1524025,0.0671 -0.3392241,0.144241 -0.058583,0.02419 -0.1273209,0.05496 -0.1527521,0.06837 -0.025431,0.01341 -0.058057,0.02439 -0.072501,0.02439 -0.014444,0 -0.095491,0.0312 -0.1801034,0.06933 -0.084613,0.03813 -0.1778081,0.07909 -0.2071005,0.09101 -1.2873866,0.524247 -2.589647,1.059053 -2.6968666,1.10754 -0.07729,0.03495 -0.1523448,0.06355 -0.166789,0.06355 -0.014444,0 -0.04707,0.01058 -0.072501,0.02352 -0.025431,0.01294 -0.076196,0.03609 -0.1128101,0.05146 -0.1699889,0.07133 -0.2845238,0.118817 -0.3395138,0.140765 -0.117131,0.04675 -0.3449811,0.142426 -0.4766818,0.200157 -0.04615,0.02023 -0.091216,0.03679 -0.1001462,0.03679 -0.00892,0 -0.073026,0.02536 -0.1424334,0.05636 -0.2455563,0.109659 -0.2941899,0.130045 -0.3102512,0.130045 -0.00892,0 -0.073026,0.02494 -0.1424334,0.05542 -0.069406,0.03048 -0.1651397,0.07223 -0.2127377,0.09277 -0.047599,0.02054 -0.086146,0.04653 -0.085661,0.05775 4.44e-4,0.01122 0.1638478,0.13424 0.3630259,0.273374 0.1991792,0.139134 0.3863493,0.273941 0.4159348,0.299571 0.029584,0.02563 0.06168,0.0466 0.071323,0.0466 0.00963,0 0.040762,0.02136 0.069154,0.04748 0.028392,0.02611 0.2373542,0.179897 0.464363,0.341743 0.9758046,0.695705 1.6515646,1.1822 1.744169,1.255667 0.014646,0.01162 0.2349713,0.169046 0.489611,0.349837 0.2546398,0.180792 0.4823134,0.344907 0.5059421,0.364701 0.1581695,0.132501 0.9832475,0.700479 1.0191017,0.701546 0.024278,7.77e-4 0.1081586,-0.03153 0.1863998,-0.07168 z m 6.4588795,6.914184 c 0.304777,-0.109955 0.630135,-0.265769 0.895163,-0.428695 0.114664,-0.07049 0.214348,-0.128164 0.221521,-0.128164 0.01779,0 0.440885,-0.301607 0.606933,-0.43266 0.645895,-0.509774 1.482009,-1.33124 2.242855,-2.203565 0.347327,-0.398216 0.50679,-0.582354 0.714863,-0.825483 0.131607,-0.153779 0.251268,-0.292895 0.265913,-0.309148 0.01465,-0.01625 0.06258,-0.0704 0.106515,-0.120338 1.344086,-1.527506 1.926051,-2.088457 2.662854,-2.566699 0.483483,-0.313819 0.837355,-0.465722 1.408423,-0.604578 0.208653,-0.05074 0.315106,-0.05889 0.761803,-0.05835 0.520926,5.55e-4 0.550181,0.0043 0.971942,0.120784 0.110461,0.03052 0.11767,0.03311 0.359484,0.129485 0.30012,0.119607 0.91891,0.467624 1.113321,0.62615 0.02476,0.02019 0.146874,0.116451 0.271363,0.213914 0.264737,0.207267 0.734506,0.637879 1.281506,1.174693 0.462908,0.454287 0.517489,0.481148 0.385829,0.189868 -0.120633,-0.266887 -0.170124,-0.381077 -0.268645,-0.619842 -0.05439,-0.131812 -0.120592,-0.287589 -0.147117,-0.346171 -0.02652,-0.05858 -0.116452,-0.274274 -0.199838,-0.479314 -0.08339,-0.205039 -0.180391,-0.436037 -0.215562,-0.513328 -0.03517,-0.07729 -0.06395,-0.152345 -0.06395,-0.166789 0,-0.01444 -0.01058,-0.04707 -0.02352,-0.0725 -0.0316,-0.06212 -0.05965,-0.130291 -0.188829,-0.458981 -0.06044,-0.15378 -0.120096,-0.303566 -0.132572,-0.332856 -0.01248,-0.02929 -0.04957,-0.125156 -0.08244,-0.21303 -0.03287,-0.08787 -0.07492,-0.195719 -0.09345,-0.239656 -0.01853,-0.04394 -0.107697,-0.277604 -0.198138,-0.519257 -0.09044,-0.241653 -0.174414,-0.463336 -0.186608,-0.492628 -0.01219,-0.02929 -0.05404,-0.143129 -0.09301,-0.252971 -0.03896,-0.109843 -0.0809,-0.223679 -0.0932,-0.252971 -0.0123,-0.02929 -0.05444,-0.143129 -0.09364,-0.252971 -0.132399,-0.37096 -0.205479,-0.572267 -0.227173,-0.625771 -0.03241,-0.07993 -0.121203,-0.335236 -0.240794,-0.692342 -0.05886,-0.175747 -0.117341,-0.343508 -0.129966,-0.372798 -0.01262,-0.02929 -0.02884,-0.07722 -0.03602,-0.106515 -0.0072,-0.02929 -0.07471,-0.227009 -0.150045,-0.439372 -0.07534,-0.212362 -0.173042,-0.493958 -0.217123,-0.62577 -0.04408,-0.13181 -0.0904,-0.263622 -0.102926,-0.292913 -0.01253,-0.02929 -0.02866,-0.07722 -0.03585,-0.106515 -0.0072,-0.02929 -0.07497,-0.227008 -0.150617,-0.43937 -0.07565,-0.212358 -0.159767,-0.452014 -0.186928,-0.532566 -0.04906,-0.145508 -0.247699,-0.709524 -0.384497,-1.091771 -0.03931,-0.109843 -0.08951,-0.253637 -0.111561,-0.319542 -0.05274,-0.15764 -0.168073,-0.4786064 -0.196159,-0.5458851 -0.01223,-0.029291 -0.04364,-0.1191621 -0.06981,-0.1997142 -0.02617,-0.080551 -0.05714,-0.157841 -0.06883,-0.1717547 -0.01169,-0.013913 -0.02126,-0.047029 -0.02126,-0.07359 0,-0.026561 -0.01124,-0.0691 -0.02497,-0.09453 -0.01374,-0.025432 -0.05568,-0.1331146 -0.0932,-0.2392965 C 22.879585,8.6293306 22.822868,8.4720046 22.801506,8.4211234 22.770951,8.3483429 22.653996,8.0216163 22.606101,7.8752383 22.584536,7.8093336 22.552284,7.7194607 22.534427,7.6755242 22.469354,7.5154046 22.468544,7.5132325 22.17172,6.7035831 22.090478,6.4819762 21.990585,6.2200977 21.922863,6.0511832 c -0.01174,-0.02929 -0.03634,-0.095197 -0.05466,-0.1464567 -0.01832,-0.05126 -0.04812,-0.1291479 -0.06623,-0.1730855 -0.0181,-0.043937 -0.06,-0.1517821 -0.09311,-0.2396572 -0.07772,-0.2063037 -0.110593,-0.2858413 -0.195646,-0.4733843 -0.03837,-0.084613 -0.06977,-0.1656602 -0.06977,-0.1801034 0,-0.014444 -0.01098,-0.04707 -0.02439,-0.072501 -0.01342,-0.025432 -0.04221,-0.088179 -0.06398,-0.1394389 C 20.901606,3.5590919 20.453506,2.7473315 20.134252,2.4149467 19.874913,2.1449415 19.717624,2.0608289 19.476303,2.0631019 c -0.374954,0.00353 -0.671498,0.3336635 -1.118639,1.2453426 -0.0862,0.1757481 -0.174691,0.361482 -0.196653,0.4127415 -0.02196,0.051261 -0.06384,0.1471239 -0.09307,0.2130297 -0.02923,0.065905 -0.103432,0.2456473 -0.164895,0.3994272 -0.06146,0.1537799 -0.121658,0.3035652 -0.133765,0.3328566 -0.01211,0.029291 -0.05453,0.1371369 -0.09428,0.2396561 -0.03975,0.1025203 -0.08169,0.2103659 -0.0932,0.2396583 -0.01151,0.02929 -0.05364,0.1371359 -0.09363,0.2396562 -0.03998,0.1025191 -0.08908,0.2241597 -0.109104,0.2703104 -0.02002,0.04615 -0.03641,0.091216 -0.03641,0.1001473 0,0.00892 -0.02516,0.073024 -0.05591,0.1424323 -0.03075,0.069406 -0.06605,0.1501605 -0.07843,0.1794518 -0.08473,0.2003668 -0.180412,0.4164465 -0.318369,0.7189706 -0.04007,0.087874 -0.165416,0.3874459 -0.278541,0.6657143 -0.113126,0.2782673 -0.221522,0.5418894 -0.240881,0.5858259 -0.01936,0.043939 -0.0796,0.1877317 -0.133865,0.3195433 -0.05427,0.1318106 -0.122591,0.2935795 -0.151831,0.3594853 -0.02924,0.065906 -0.0687,0.1557777 -0.08768,0.1997142 -0.01898,0.043938 -0.06993,0.1577744 -0.113203,0.2529716 -0.04328,0.095196 -0.105312,0.2329989 -0.137851,0.3062278 -0.03254,0.073229 -0.09528,0.2110319 -0.139436,0.3062279 -0.136057,0.2933562 -0.972461,1.9720792 -1.087922,2.1835412 -0.05998,0.109842 -0.154599,0.283592 -0.210272,0.386114 -0.135001,0.2486 -0.232745,0.422829 -0.324792,0.578943 -0.04185,0.07098 -0.0761,0.135096 -0.0761,0.142477 0,0.0074 -0.04194,0.07899 -0.0932,0.159117 -0.05126,0.08013 -0.0932,0.151585 -0.0932,0.158783 0,0.0072 -0.05992,0.10869 -0.133144,0.225535 -0.07323,0.116845 -0.133141,0.218064 -0.133141,0.224931 0,0.0069 -0.08388,0.145305 -0.1864,0.30764 -0.10252,0.162334 -0.186401,0.300896 -0.186401,0.307918 0,0.02188 -0.145367,0.237482 -0.166428,0.246843 -0.01098,0.0049 -0.01997,0.0205 -0.01997,0.03471 0,0.0552 -0.605211,0.954377 -0.983169,1.460712 -0.252907,0.338809 -0.250862,0.336215 -0.472453,0.599352 -0.08633,0.102521 -0.182266,0.219301 -0.213186,0.259514 -0.344067,0.447481 -1.4480397,1.529732 -2.0984606,2.057169 -0.072241,0.05858 -0.1733019,0.144042 -0.224577,0.189908 l -0.093226,0.08339 0.1216283,0.05541 c 0.3185356,0.14511 0.8215206,0.60232 1.1585593,1.053119 0.225841,0.302071 0.54978,0.78682 0.660315,0.988112 0.04021,0.07323 0.08255,0.145126 0.09409,0.159771 0.05584,0.07089 0.668918,1.269337 0.797152,1.558264 0.03563,0.08028 0.116515,0.256228 0.179742,0.390996 0.06323,0.134766 0.114962,0.250891 0.114962,0.258052 0,0.0072 0.04571,0.112587 0.101589,0.23428 0.05587,0.121694 0.117708,0.263202 0.13741,0.314463 0.0197,0.05126 0.04588,0.104583 0.05818,0.118496 0.0123,0.01391 0.02236,0.04055 0.02236,0.05919 0,0.01864 0.02996,0.100123 0.06657,0.181075 0.03662,0.08095 0.09653,0.213418 0.133143,0.294369 0.03661,0.08095 0.06657,0.159003 0.06657,0.173447 0,0.01444 0.01058,0.04707 0.02352,0.0725 0.02304,0.04529 0.03351,0.06947 0.123849,0.285895 0.06543,0.156744 0.07521,0.180807 0.230028,0.565713 0.104437,0.259652 0.153887,0.352723 0.187459,0.352827 0.02508,0 0.114953,-0.02487 0.199715,-0.05545 z m -0.696819,1.105047 c -0.173427,-0.0635 -0.230865,-0.135638 -0.358559,-0.450308 -0.01189,-0.02929 -0.03403,-0.08321 -0.04921,-0.119828 -0.01518,-0.03661 -0.06032,-0.150451 -0.100299,-0.252971 -0.03998,-0.102519 -0.08908,-0.22416 -0.109103,-0.270308 -0.02002,-0.04615 -0.03641,-0.09122 -0.03641,-0.100148 0,-0.0089 -0.02516,-0.07303 -0.05591,-0.142433 -0.03075,-0.06941 -0.06589,-0.150162 -0.07808,-0.179453 -0.0122,-0.02929 -0.04218,-0.101187 -0.06663,-0.159771 -0.02445,-0.05858 -0.054,-0.13048 -0.06566,-0.159771 -0.02348,-0.05898 -0.09459,-0.229883 -0.138508,-0.332857 -0.01561,-0.03661 -0.04037,-0.09653 -0.05502,-0.133143 -0.05796,-0.144891 -0.07216,-0.178583 -0.137814,-0.326989 -0.03745,-0.08465 -0.06809,-0.158665 -0.06809,-0.164484 0,-0.0058 -0.04194,-0.101376 -0.0932,-0.212351 -0.05126,-0.110975 -0.0932,-0.207003 -0.0932,-0.213397 0,-0.0064 -0.04922,-0.117184 -0.109371,-0.2462 -0.06015,-0.129018 -0.144904,-0.312466 -0.188333,-0.407663 -0.188636,-0.413487 -0.709751,-1.426045 -0.7969237,-1.548468 -0.02772,-0.03893 -0.0504,-0.07849 -0.0504,-0.08792 0,-0.0094 -0.04194,-0.0827 -0.0932,-0.162833 -0.05126,-0.08013 -0.0932,-0.15196 -0.0932,-0.159617 0,-0.0077 -0.01297,-0.02839 -0.02882,-0.04608 -0.01585,-0.01769 -0.07277,-0.09976 -0.126485,-0.182374 C 9.1735707,20.852169 8.815425,20.475117 8.4590186,20.305955 8.3495659,20.254005 8.288719,20.244605 8.075928,20.246735 c -0.3880829,0.0039 -0.6437105,0.08955 -1.1716552,0.392573 -0.067933,0.03899 -0.1437364,0.05391 -0.2796003,0.05503 C 6.4086672,20.696138 6.4651311,20.728128 5.66631,20.15099 5.392649,19.953278 5.1349848,19.767542 5.0937209,19.738252 5.0524571,19.708961 4.7941946,19.523227 4.5198042,19.325509 4.2454138,19.127793 3.7960711,18.804256 3.5212644,18.60654 3.2464578,18.408821 2.7977322,18.085286 2.5240976,17.887568 2.2504619,17.689852 1.992639,17.504118 1.9511576,17.474827 1.9096751,17.445535 1.6093874,17.229844 1.2838517,16.995512 0.95831493,16.761182 0.56364033,16.477492 0.40679491,16.365092 0.0615796,16.117698 -0.001062,16.02956 1.3490249e-5,15.792743 9.0141025e-4,15.613776 0.05162379,15.512009 0.18828127,15.415549 c 0.0396922,-0.02802 0.40169696,-0.185394 0.80445386,-0.349727 0.40275697,-0.164334 0.78372207,-0.32193 0.84658897,-0.350216 0.062866,-0.02829 0.1647213,-0.07039 0.2263429,-0.09357 0.061622,-0.02318 0.1752753,-0.07081 0.2525654,-0.105846 0.07729,-0.03504 0.152347,-0.0637 0.166789,-0.0637 0.014444,0 0.04707,-0.01098 0.072502,-0.02439 0.025431,-0.01342 0.094169,-0.04418 0.1527521,-0.06837 0.058584,-0.02419 0.1334754,-0.05516 0.1664283,-0.06881 0.032953,-0.01365 0.086875,-0.03559 0.1198281,-0.04874 0.054991,-0.02195 0.169526,-0.06944 0.3395137,-0.140765 0.036616,-0.01536 0.08738,-0.03852 0.1128113,-0.05146 0.025431,-0.01294 0.058056,-0.02352 0.0725,-0.02352 0.024485,0 0.276154,-0.107272 0.3801849,-0.162052 0.025432,-0.01339 0.058057,-0.02435 0.072501,-0.02435 0.014444,0 0.0895,-0.02884 0.166789,-0.06409 0.07729,-0.03525 0.7037217,-0.294018 1.3920701,-0.57504 0.6883474,-0.281023 1.2874888,-0.52654 1.3314252,-0.545596 0.043939,-0.01905 0.145792,-0.06127 0.2263429,-0.09381 0.080552,-0.03254 0.2096955,-0.08771 0.2869856,-0.1226 0.07729,-0.03489 0.1523447,-0.06343 0.166789,-0.06343 0.014444,0 0.04707,-0.01058 0.072502,-0.02352 0.02543,-0.01294 0.076195,-0.03609 0.1128091,-0.05146 0.1919737,-0.08056 0.2847857,-0.118846 0.3328565,-0.137321 0.1751677,-0.06733 0.3596374,-0.172288 0.372167,-0.211765 0.00801,-0.02522 0.035611,-0.06894 0.061346,-0.09716 0.025735,-0.02821 0.1116425,-0.141166 0.1909082,-0.251009 0.4321771,-0.598899 1.1124319,-1.351615 1.5722276,-1.7396988 0.124375,-0.1049788 0.250196,-0.2126568 0.2796,-0.2392855 0.0294,-0.026629 0.185272,-0.1356108 0.346375,-0.2421822 0.32475,-0.2148255 0.640404,-0.3751426 0.971942,-0.4936366 0.05126,-0.01832 0.117165,-0.042649 0.146457,-0.054064 0.05299,-0.020647 0.244584,-0.094765 0.346171,-0.1339127 0.323131,-0.1245218 0.57831,-0.2348858 0.665713,-0.2879167 0.270282,-0.1639947 0.897351,-0.7548396 1.262634,-1.189696 0.726189,-0.8645039 2.245378,-3.0914114 2.942875,-4.3138234 0.08562,-0.1500595 0.411387,-0.6337647 0.529042,-0.7855412 0.278385,-0.3591168 0.705351,-0.7405049 0.990584,-0.8848406 0.180431,-0.091303 0.493656,-0.180301 0.634559,-0.180301 0.15617,0 0.511728,0.060202 0.643611,0.1089744 0.347865,0.1286462 0.695779,0.3941519 0.977717,0.746132 0.118799,0.1483115 0.393654,0.5459573 0.393654,0.5695183 0,0.00675 0.03968,0.075425 0.08817,0.1526 0.07858,0.125038 0.398068,0.7608193 0.505406,1.005743 0.02247,0.05126 0.07889,0.17708 0.125391,0.2795992 0.09224,0.203358 0.153448,0.3432719 0.186399,0.4260571 0.01166,0.029291 0.04121,0.1011884 0.06566,0.1597711 0.02445,0.058583 0.05441,0.1304797 0.06657,0.1597711 0.01216,0.029291 0.03982,0.095197 0.06145,0.1464568 0.02164,0.051261 0.107946,0.2729431 0.191799,0.4926288 0.08385,0.2196845 0.167427,0.4353768 0.185722,0.4793133 0.01829,0.043937 0.04825,0.1218259 0.06657,0.1730855 0.01832,0.05126 0.04287,0.1171654 0.05456,0.1464567 0.01169,0.029291 0.03624,0.095197 0.05457,0.1464568 0.01832,0.05126 0.04868,0.1291479 0.06746,0.1730866 0.01878,0.043936 0.0518,0.1338072 0.07337,0.199713 0.02157,0.065905 0.05383,0.1557777 0.07168,0.1997142 0.06234,0.1533848 0.0753,0.187755 0.145662,0.386114 0.03896,0.1098434 0.0809,0.2236791 0.0932,0.2529716 0.02062,0.049111 0.126642,0.3435848 0.191751,0.5325707 0.01514,0.043937 0.043,0.1158335 0.06192,0.15977 0.01892,0.043937 0.06503,0.1697569 0.102475,0.2796003 0.03744,0.1098423 0.117129,0.337517 0.177081,0.505942 0.05995,0.168425 0.126873,0.3601513 0.148716,0.4260571 0.02184,0.065905 0.04982,0.143793 0.06218,0.1730855 0.01236,0.02929 0.04264,0.1131708 0.0673,0.1863987 0.02465,0.073229 0.05492,0.1571095 0.06725,0.1863998 0.02778,0.065971 0.1425,0.3849141 0.19635,0.5458861 0.02205,0.06591 0.07225,0.209699 0.111562,0.319543 0.174244,0.48688 0.342325,0.969489 0.440515,1.264854 0.05842,0.17575 0.116653,0.343509 0.129396,0.372801 0.01274,0.02929 0.02937,0.07722 0.03695,0.106513 0.0076,0.02929 0.07505,0.227008 0.149935,0.439371 0.07488,0.212363 0.188712,0.541892 0.252953,0.732285 0.06424,0.190394 0.178388,0.519922 0.253653,0.732285 0.07527,0.212362 0.159342,0.45202 0.186833,0.532571 0.06759,0.198028 0.249629,0.707372 0.29979,0.838798 0.02236,0.05858 0.08458,0.226343 0.138282,0.3728 0.09319,0.254165 0.154581,0.416233 0.201751,0.532571 0.01187,0.02929 0.08946,0.233 0.172414,0.452685 0.128305,0.339806 0.304079,0.789766 0.384881,0.985256 0.01211,0.02929 0.05474,0.137136 0.09474,0.239656 0.04,0.102521 0.09509,0.237196 0.122416,0.299281 0.02733,0.06208 0.04969,0.120189 0.04969,0.129119 0,0.0089 0.01797,0.05699 0.03994,0.106804 0.02197,0.04981 0.05792,0.131323 0.07989,0.181135 0.02197,0.04981 0.03994,0.09787 0.03994,0.106803 0,0.0089 0.02536,0.07303 0.05636,0.142433 0.031,0.06941 0.07375,0.168136 0.095,0.219396 0.02126,0.05126 0.05142,0.123156 0.06703,0.15977 0.01561,0.03662 0.03755,0.09054 0.04874,0.119829 0.01119,0.02929 0.04036,0.101189 0.06481,0.159772 0.02445,0.05858 0.05444,0.13048 0.06663,0.15977 0.0122,0.02929 0.0485,0.113172 0.08067,0.186401 0.03217,0.07323 0.07387,0.16909 0.09265,0.213027 0.01879,0.04394 0.06555,0.149115 0.103926,0.233728 0.03837,0.08461 0.06977,0.159456 0.06977,0.166317 0,0.0069 0.04194,0.10327 0.0932,0.214243 0.05126,0.110975 0.0932,0.206588 0.0932,0.212475 0,0.0059 0.03436,0.0859 0.07636,0.177798 0.042,0.0919 0.103497,0.227009 0.136668,0.300238 0.13288,0.293348 0.350145,0.7612 0.500819,1.078456 0.06329,0.133255 0.05416,0.361228 -0.01939,0.484316 -0.08713,0.145823 -0.221811,0.216166 -0.415789,0.217176 -0.14749,7.77e-4 -0.177052,-0.0097 -0.359485,-0.127606 -0.549051,-0.354766 -1.302958,-0.989426 -2.15492,-1.814074 -0.531889,-0.514835 -0.842899,-0.804103 -0.999945,-0.930038 -0.07306,-0.05858 -0.138818,-0.113866 -0.146141,-0.12285 -0.08203,-0.100637 -0.972039,-0.662693 -1.049374,-0.662693 -0.01746,0 -0.04313,-0.01089 -0.05704,-0.02419 -0.03045,-0.02913 -0.369302,-0.141574 -0.566709,-0.188065 -0.195763,-0.04611 -0.724871,-0.04026 -0.971751,0.01073 -0.895522,0.184975 -1.658626,0.734739 -2.882027,2.076302 -0.145641,0.159709 -0.276877,0.303503 -0.291635,0.319542 -0.02836,0.03083 -0.566148,0.648101 -0.663392,0.761447 -0.508271,0.592424 -0.795453,0.923446 -1.038728,1.197291 -0.353084,0.397452 -1.306652,1.364686 -1.555288,1.577574 -0.09761,0.08358 -0.213419,0.183091 -0.257355,0.221146 -0.133207,0.11537 -0.638482,0.5087 -0.721265,0.561468 -0.04268,0.0272 -0.08358,0.05619 -0.09091,0.06441 -0.05789,0.06502 -0.568693,0.364681 -0.938094,0.550321 -0.415473,0.20879 -0.688674,0.309001 -1.142554,0.419086 -0.322032,0.07811 -0.343382,0.07926 -0.487824,0.02637 z" />
  </g>
</svg>
