<?xml version="1.0" encoding="UTF-8" standalone="no"?>
<svg
   xmlns:dc="http://purl.org/dc/elements/1.1/"
   xmlns:cc="http://creativecommons.org/ns#"
   xmlns:rdf="http://www.w3.org/1999/02/22-rdf-syntax-ns#"
   xmlns:svg="http://www.w3.org/2000/svg"
   xmlns="http://www.w3.org/2000/svg"
   xmlns:sodipodi="http://sodipodi.sourceforge.net/DTD/sodipodi-0.dtd"
   xmlns:inkscape="http://www.inkscape.org/namespaces/inkscape"
   height="33.677212"
   overflow="scroll"
   width="90.000008"
   version="1.1"
   id="svg12"
   sodipodi:docname="latex_logo.svg"
   inkscape:version="1.0.1 (3bc2e813f5, 2020-09-07)">
  <metadata
     id="metadata18">
    <rdf:RDF>
      <cc:Work
         rdf:about="">
        <dc:format>image/svg+xml</dc:format>
        <dc:type
           rdf:resource="http://purl.org/dc/dcmitype/StillImage" />
        <dc:title />
      </cc:Work>
    </rdf:RDF>
  </metadata>
  <defs
     id="defs16" />
  <sodipodi:namedview
     pagecolor="#ffffff"
     bordercolor="#666666"
     borderopacity="1"
     objecttolerance="10"
     gridtolerance="10"
     guidetolerance="10"
     inkscape:pageopacity="0"
     inkscape:pageshadow="2"
     inkscape:window-width="1920"
     inkscape:window-height="1177"
     id="namedview14"
     showgrid="false"
     inkscape:zoom="0.65053824"
     inkscape:cx="118.30259"
     inkscape:cy="172.73529"
     inkscape:window-x="-8"
     inkscape:window-y="-8"
     inkscape:window-maximized="1"
     inkscape:current-layer="svg12"
     inkscape:document-rotation="0" />
  <g
     id="g16"
     transform="matrix(0.08032129,0,0,0.08116947,0,-28.084637)">
    <path
       d="m 245.7,544 h -11.25 c -4.5,45.9 -10.8,101.7 -90,101.7 H 108 c -21.15,0 -22.05,-3.15 -22.05,-18 V 388.75 c 0,-15.3 0,-21.6 42.3,-21.6 h 14.85 v -13.5 C 126.9,355 86.4,355 67.95,355 50.4,355 15.3,355 0,353.65 v 13.5 h 10.35 c 34.65,0 35.55,4.95 35.55,21.15 v 236.25 c 0,16.2 -0.9,21.15 -35.55,21.15 H 0 v 13.95 h 233.55 z"
       id="path2"
       style="stroke-width:45" />
    <path
       d="m 238.05,353.2 c -1.8,-5.4 -2.7,-7.2 -8.55,-7.2 -5.85,0 -7.2,1.8 -9,7.2 l -72.45,183.6 c -3.15,7.65 -8.55,21.6 -36.45,21.6 v 11.25 h 69.75 V 558.4 c -13.95,0 -22.5,-6.3 -22.5,-15.3 0,-2.25 0.45,-3.15 1.35,-6.3 0,0 15.3,-38.7 15.3,-38.7 h 89.1 l 18,45.9 c 0.9,1.8 1.8,4.05 1.8,5.4 0,9 -17.1,9 -25.65,9 v 11.25 H 347.4 V 558.4 h -6.3 c -21.15,0 -23.4,-3.15 -26.55,-12.15 0,0 -76.5,-193.05 -76.5,-193.05 z m -18,31.95 40.05,101.7 H 180 Z"
       id="path4"
       style="stroke-width:45" />
    <path
       d="M 598.5,356.35 H 324.45 c 0,0 -8.1,100.8 -8.1,100.8 h 10.8 c 6.3,-72.45 13.05,-87.3 81,-87.3 8.1,0 19.8,0 24.3,0.9 9.45,1.8 9.45,6.75 9.45,17.1 V 624.1 c 0,15.3 0,21.6 -47.25,21.6 h -18 v 13.95 c 18.45,-1.35 63.9,-1.35 84.6,-1.35 20.7,0 67.05,0 85.5,1.35 V 645.7 h -18 c -47.25,0 -47.25,-6.3 -47.25,-21.6 V 387.85 c 0,-9 0,-15.3 8.1,-17.1 4.95,-0.9 17.1,-0.9 25.65,-0.9 67.5,0 74.25,14.85 80.55,87.3 h 11.25 c 0,0 -8.55,-100.8 -8.55,-100.8 z"
       id="path6"
       style="stroke-width:45" />
    <path
       d="m 839.7,645.25 h -11.25 c -11.25,68.85 -21.6,101.7 -98.55,101.7 h -59.4 c -21.15,0 -22.05,-3.15 -22.05,-18 v -119.7 h 40.05 c 43.65,0 48.6,14.4 48.6,52.65 h 11.25 V 543.1 H 737.1 c 0,38.25 -4.95,52.2 -48.6,52.2 H 648.45 V 487.75 c 0,-14.85 0.9,-18 22.05,-18 h 57.6 c 68.85,0 80.55,24.75 87.75,87.3 h 11.25 l -12.6,-100.8 h -252 v 13.5 h 10.35 c 34.65,0 35.55,4.95 35.55,21.15 v 234.9 c 0,16.2 -0.9,21.15 -35.55,21.15 H 562.5 v 13.95 h 258.3 z"
       id="path8"
       style="stroke-width:45" />
    <path
       d="m 975.15,486.4 61.65,-90 c 9.45,-14.4 24.75,-28.8 64.8,-29.25 v -13.5 H 994.5 v 13.5 c 18,0.45 27.9,10.35 27.9,20.7 0,4.5 -0.9,5.4 -4.05,10.35 0,0 -51.3,75.6 -51.3,75.6 l -57.6,-86.4 c -0.9,-1.35 -3.15,-4.95 -3.15,-6.75 0,-5.4 9.9,-13.05 28.8,-13.5 v -13.5 C 919.8,355 886.95,355 869.85,355 855.9,355 828,354.55 811.35,353.65 v 13.5 h 8.55 c 24.75,0 33.3,3.15 41.85,15.75 0,0 82.35,124.65 82.35,124.65 L 870.75,616 c -6.3,9 -19.8,29.7 -64.8,29.7 v 13.95 h 107.1 V 645.7 c -20.7,-0.45 -28.35,-12.6 -28.35,-20.7 0,-4.05 1.35,-5.85 4.5,-10.8 l 63.45,-94.05 71.1,107.1 c 0.9,1.8 2.25,3.6 2.25,4.95 0,5.4 -9.9,13.05 -29.25,13.5 v 13.95 c 15.75,-1.35 48.6,-1.35 65.25,-1.35 18.9,0 39.6,0.45 58.5,1.35 V 645.7 h -8.55 c -23.4,0 -32.85,-2.25 -42.3,-16.2 0,0 -94.5,-143.1 -94.5,-143.1 z"
       id="path10"
       style="stroke-width:45" />
  </g>
</svg>
