<?xml version="1.0" encoding="UTF-8" standalone="no"?>
<svg
   xmlns:dc="http://purl.org/dc/elements/1.1/"
   xmlns:cc="http://creativecommons.org/ns#"
   xmlns:rdf="http://www.w3.org/1999/02/22-rdf-syntax-ns#"
   xmlns:svg="http://www.w3.org/2000/svg"
   xmlns="http://www.w3.org/2000/svg"
   xmlns:sodipodi="http://sodipodi.sourceforge.net/DTD/sodipodi-0.dtd"
   xmlns:inkscape="http://www.inkscape.org/namespaces/inkscape"
   version="1.1"
   id="layer"
   x="0px"
   y="0px"
   viewBox="0 0 90 87.437439"
   xml:space="preserve"
   sodipodi:docname="solidworks_logo.svg"
   width="90"
   height="87.437439"
   inkscape:version="1.0.1 (3bc2e813f5, 2020-09-07)"><metadata
   id="metadata11"><rdf:RDF><cc:Work
       rdf:about=""><dc:format>image/svg+xml</dc:format><dc:type
         rdf:resource="http://purl.org/dc/dcmitype/StillImage" /><dc:title /></cc:Work></rdf:RDF></metadata><defs
   id="defs9" /><sodipodi:namedview
   pagecolor="#ffffff"
   bordercolor="#666666"
   borderopacity="1"
   objecttolerance="10"
   gridtolerance="10"
   guidetolerance="10"
   inkscape:pageopacity="0"
   inkscape:pageshadow="2"
   inkscape:window-width="1920"
   inkscape:window-height="1177"
   id="namedview7"
   showgrid="false"
   inkscape:zoom="1.154908"
   inkscape:cx="298.68313"
   inkscape:cy="122.66236"
   inkscape:window-x="-8"
   inkscape:window-y="-8"
   inkscape:window-maximized="1"
   inkscape:current-layer="layer"
   inkscape:document-rotation="0" />
<style
   type="text/css"
   id="style2">
	.st0{fill:#E23B3B;}
</style>
<path
   class="st0"
   d="m 81.428166,29.973739 c 4.230976,0.722362 7.687993,1.238335 8.461952,2.83785 0.877154,1.805904 -3.715003,1.909099 -6.03688,1.960696 -11.093414,0.206389 -17.801059,0.412778 -18.16224,3.818198 -0.412778,4.385768 4.746949,8.823134 9.855079,15.014804 4.695352,5.6757 10.009871,11.248205 8.461952,16.459529 -1.909099,6.501257 -10.680635,7.842786 -19.09099,7.842786 -8.049174,0 -15.633973,-1.186738 -18.833004,-1.754308 -3.972989,-0.722361 -3.405419,-2.476669 -2.321877,-3.044239 1.186737,-0.619167 7.94598,-0.670764 12.641332,-0.877153 3.869795,-0.206389 15.118,-0.206389 16.872307,-2.83785 C 75.442883,66.246618 70.179961,60.72571 65.329817,55.050011 59.292937,47.929589 52.688486,40.55118 56.1971,35.185063 60.73766,28.271029 73.998159,28.735405 81.428166,29.973739 M 26.993045,41.47993 c 6.965632,-0.36118 15.479181,0.722362 20.22613,3.97299 2.373475,1.599516 4.024587,4.592157 3.044239,8.049172 C 47.528759,63.202379 37.260902,74.966557 14.454908,83.99608 7.2312904,86.885527 1.5039936,87.969069 0.26565909,87.19511 -1.0242727,86.369554 2.7423281,79.971492 3.877468,77.804407 7.5408741,70.890373 12.081434,64.182728 16.518799,58.042652 c 1.651113,-2.27028 4.127782,-6.191672 6.449659,-5.882089 2.063891,0.309584 -0.361181,4.437366 -1.909099,7.120424 -2.631461,4.437365 -9.906676,16.82071 -7.533202,17.543072 5.314519,1.651113 30.236001,-15.375987 26.572595,-24.818287 -1.70271,-4.385766 -12.538137,-4.798544 -19.348977,-4.798544 -3.095836,0 -9.855078,0.670764 -10.267857,-1.496321 C 10.06914,43.75021 20.801373,41.789514 26.993045,41.47993 M 45.774452,0.04732192 c 8.410355,-0.3611809 18.317031,1.28993178 20.174533,6.86243708 3.044239,9.08112 -12.331748,22.341618 -25.747038,28.842874 -3.302226,1.599516 -5.262922,2.063891 -6.088478,1.909099 -0.77396,-0.103194 -0.928751,-0.877153 -0.670765,-1.341529 0.464375,-0.980348 2.631461,-2.889447 5.520908,-5.004935 C 54.030015,20.273452 58.983353,12.224278 56.093906,8.922053 54.288001,6.8065644 46.600008,5.3618408 38.705626,5.3618408 c -2.167086,0 -7.842786,0.4643755 -8.410355,-1.3931263 -0.464376,-1.5479181 7.120423,-3.56021168 15.479181,-3.92139258"
   id="path4"
   sodipodi:nodetypes="ccccccsccccccccccccccccccscccccccccscc"
   style="stroke-width:0.515973" />
</svg>
