<?xml version="1.0" encoding="UTF-8" standalone="no"?>
<svg
   xmlns:dc="http://purl.org/dc/elements/1.1/"
   xmlns:cc="http://creativecommons.org/ns#"
   xmlns:rdf="http://www.w3.org/1999/02/22-rdf-syntax-ns#"
   xmlns:svg="http://www.w3.org/2000/svg"
   xmlns="http://www.w3.org/2000/svg"
   xmlns:sodipodi="http://sodipodi.sourceforge.net/DTD/sodipodi-0.dtd"
   xmlns:inkscape="http://www.inkscape.org/namespaces/inkscape"
   width="800"
   height="600"
   viewBox="0 0 211.66667 158.75001"
   version="1.1"
   id="svg8"
   inkscape:version="1.0.1 (3bc2e813f5, 2020-09-07)"
   sodipodi:docname="stl_converter.svg">
  <defs
     id="defs2">
    <marker
       style="overflow:visible"
       id="Arrow1Lend"
       refX="0"
       refY="0"
       orient="auto"
       inkscape:stockid="Arrow1Lend"
       inkscape:isstock="true">
      <path
         transform="matrix(-0.8,0,0,-0.8,-10,0)"
         style="fill:#000000;fill-opacity:1;fill-rule:evenodd;stroke:#000000;stroke-width:1pt;stroke-opacity:1"
         d="M 0,0 5,-5 -12.5,0 5,5 Z"
         id="path1239" />
    </marker>
  </defs>
  <sodipodi:namedview
     id="base"
     pagecolor="#ffffff"
     bordercolor="#666666"
     borderopacity="1.0"
     inkscape:pageopacity="0.0"
     inkscape:pageshadow="2"
     inkscape:zoom="1"
     inkscape:cx="238.76773"
     inkscape:cy="222.74096"
     inkscape:document-units="mm"
     inkscape:current-layer="g1154"
     inkscape:document-rotation="0"
     showgrid="false"
     inkscape:object-paths="true"
     inkscape:window-width="1920"
     inkscape:window-height="1177"
     inkscape:window-x="-8"
     inkscape:window-y="-8"
     inkscape:window-maximized="1"
     units="px" />
  <metadata
     id="metadata5">
    <rdf:RDF>
      <cc:Work
         rdf:about="">
        <dc:format>image/svg+xml</dc:format>
        <dc:type
           rdf:resource="http://purl.org/dc/dcmitype/StillImage" />
        <dc:title />
      </cc:Work>
    </rdf:RDF>
  </metadata>
  <g
     inkscape:label="Layer 1"
     inkscape:groupmode="layer"
     id="layer1"
     transform="translate(-38.845237,-37.711308)">
    <g
       id="g1058"
       style="stroke-width:10;stroke-miterlimit:4;stroke-dasharray:none">
      <g
         id="g1066">
        <g
           id="g1147"
           transform="matrix(2.2354592,0,0,2.2354592,169.52502,169.48452)">
          <g
             id="g1084">
            <g
               id="g1165"
               transform="translate(22.657005,-57.149758)">
              <g
                 id="g1154">
                <rect
                   style="fill:#cccccc;stroke-width:6.3666;stroke-linecap:round;stroke-linejoin:round"
                   id="rect882"
                   width="94.922707"
                   height="71.162628"
                   x="-81.114693"
                   y="-1.7970624" />
                <g
                   id="g929"
                   transform="translate(0,1.8937199)">
                  <g
                     id="g1214"
                     transform="matrix(0.71898993,0,0,0.71898993,-22.557331,11.835077)">
                    <path
                       style="fill:#e9e9e0;stroke-width:10;stroke-miterlimit:4;stroke-dasharray:none"
                       d="M 36.985,0 H 7.963 C 7.155,0 6.5,0.655 6.5,1.926 V 55 c 0,0.345 0.655,1 1.463,1 H 48.037 C 48.845,56 49.5,55.345 49.5,55 V 12.978 c 0,-0.696 -0.093,-0.92 -0.257,-1.085 L 37.607,0.257 C 37.442,0.093 37.218,0 36.985,0 Z"
                       id="path1068" />
                    <polygon
                       style="fill:#d9d7ca;stroke-width:10;stroke-miterlimit:4;stroke-dasharray:none"
                       points="49.349,12 37.5,0.151 37.5,12 "
                       id="polygon1070" />
                    <path
                       style="fill:#008000;stroke-width:10;stroke-miterlimit:4;stroke-dasharray:none"
                       d="M 48.037,56 H 7.963 C 7.155,56 6.5,55.345 6.5,54.537 V 39 h 43 V 54.537 C 49.5,55.345 48.845,56 48.037,56 Z"
                       id="path1072" />
                    <g
                       id="g1080">
                      <path
                         style="fill:#ffffff"
                         d="m 21.58,51.975 c -0.374,0.364 -0.798,0.638 -1.271,0.82 -0.474,0.183 -0.984,0.273 -1.531,0.273 -0.602,0 -1.155,-0.109 -1.661,-0.328 -0.506,-0.219 -0.948,-0.542 -1.326,-0.971 -0.378,-0.429 -0.675,-0.966 -0.889,-1.613 -0.214,-0.647 -0.321,-1.395 -0.321,-2.242 0,-0.847 0.107,-1.593 0.321,-2.235 0.214,-0.643 0.51,-1.178 0.889,-1.606 0.378,-0.429 0.822,-0.754 1.333,-0.978 0.51,-0.224 1.062,-0.335 1.654,-0.335 0.547,0 1.057,0.091 1.531,0.273 0.474,0.183 0.897,0.456 1.271,0.82 l -1.135,1.012 c -0.228,-0.265 -0.481,-0.456 -0.759,-0.574 -0.278,-0.118 -0.567,-0.178 -0.868,-0.178 -0.337,0 -0.659,0.063 -0.964,0.191 -0.306,0.128 -0.579,0.344 -0.82,0.649 -0.242,0.306 -0.431,0.699 -0.567,1.183 -0.136,0.484 -0.21,1.075 -0.219,1.777 0.009,0.684 0.08,1.267 0.212,1.75 0.132,0.483 0.314,0.877 0.547,1.183 0.233,0.306 0.497,0.528 0.793,0.67 0.296,0.142 0.608,0.212 0.937,0.212 0.329,0 0.636,-0.06 0.923,-0.178 0.287,-0.118 0.549,-0.31 0.786,-0.574 z"
                         id="path1074" />
                      <path
                         style="fill:#ffffff"
                         d="m 29.633,50.238 c 0,0.364 -0.075,0.718 -0.226,1.06 -0.151,0.342 -0.362,0.643 -0.636,0.902 -0.274,0.259 -0.611,0.467 -1.012,0.622 -0.401,0.155 -0.857,0.232 -1.367,0.232 -0.219,0 -0.444,-0.012 -0.677,-0.034 -0.233,-0.022 -0.467,-0.062 -0.704,-0.116 -0.237,-0.055 -0.463,-0.13 -0.677,-0.226 -0.214,-0.096 -0.399,-0.212 -0.554,-0.349 l 0.287,-1.176 c 0.127,0.073 0.289,0.144 0.485,0.212 0.196,0.068 0.398,0.132 0.608,0.191 0.209,0.06 0.419,0.107 0.629,0.144 0.209,0.036 0.405,0.055 0.588,0.055 0.556,0 0.982,-0.13 1.278,-0.39 0.296,-0.26 0.444,-0.645 0.444,-1.155 0,-0.31 -0.105,-0.574 -0.314,-0.793 C 27.575,49.198 27.313,49 26.999,48.822 26.685,48.644 26.345,48.467 25.98,48.289 25.615,48.111 25.273,47.901 24.955,47.66 c -0.319,-0.241 -0.583,-0.526 -0.793,-0.854 -0.21,-0.328 -0.314,-0.738 -0.314,-1.23 0,-0.446 0.082,-0.843 0.246,-1.189 0.164,-0.346 0.385,-0.641 0.663,-0.882 0.278,-0.241 0.602,-0.426 0.971,-0.554 0.369,-0.128 0.759,-0.191 1.169,-0.191 0.419,0 0.843,0.039 1.271,0.116 0.428,0.077 0.774,0.203 1.039,0.376 -0.055,0.118 -0.119,0.248 -0.191,0.39 -0.073,0.142 -0.142,0.273 -0.205,0.396 -0.064,0.123 -0.119,0.226 -0.164,0.308 -0.046,0.082 -0.073,0.128 -0.082,0.137 C 28.51,44.456 28.449,44.42 28.38,44.374 28.311,44.328 28.213,44.283 28.086,44.237 27.958,44.191 27.79,44.16 27.58,44.141 c -0.21,-0.019 -0.479,-0.014 -0.807,0.014 -0.183,0.019 -0.355,0.07 -0.52,0.157 -0.165,0.087 -0.31,0.193 -0.438,0.321 -0.128,0.128 -0.228,0.271 -0.301,0.431 -0.073,0.159 -0.109,0.313 -0.109,0.458 0,0.364 0.104,0.658 0.314,0.882 0.209,0.224 0.469,0.419 0.779,0.588 0.31,0.169 0.647,0.333 1.012,0.492 0.364,0.159 0.704,0.354 1.019,0.581 0.315,0.227 0.576,0.513 0.786,0.854 0.213,0.342 0.318,0.781 0.318,1.319 z"
                         id="path1076" />
                      <path
                         style="fill:#ffffff"
                         d="M 34.035,53.055 30.904,42.924 h 1.873 l 2.338,8.695 2.475,-8.695 h 1.859 l -3.281,10.131 z"
                         id="path1078" />
                    </g>
                    <path
                       style="fill:#c8bdb8"
                       d="m 23.5,16 v -4 h -12 v 4 2 2 2 2 2 2 2 4 h 10 2 21 v -4 -2 -2 -2 -2 -2 -4 z m -10,-2 h 8 v 2 h -8 z m 0,4 h 8 v 2 h -8 z m 0,4 h 8 v 2 h -8 z m 0,4 h 8 v 2 h -8 z m 8,6 h -8 v -2 h 8 z m 21,0 h -19 v -2 h 19 z m 0,-4 h -19 v -2 h 19 z m 0,-4 h -19 v -2 h 19 z m -19,-4 v -2 h 19 v 2 z"
                       id="path1082" />
                  </g>
                  <g
                     id="g1232"
                     transform="matrix(0.71898993,0,0,0.71898993,-22.557331,9.2003223)">
                    <g
                       id="g1173"
                       transform="matrix(0.37135078,0,0,0.37135078,-96.101352,-18.327698)"
                       style="stroke-width:10;stroke-miterlimit:4;stroke-dasharray:none">
                      <rect
                         style="fill:none;stroke:#000000;stroke-width:10;stroke-linecap:round;stroke-linejoin:round;stroke-miterlimit:4;stroke-dasharray:none"
                         id="rect1019"
                         width="86.934525"
                         height="86.934525"
                         x="45.357143"
                         y="81.64286"
                         rx="1.6754292"
                         ry="1.6754292" />
                      <rect
                         style="fill:none;stroke:#000000;stroke-width:10;stroke-linecap:round;stroke-linejoin:round;stroke-miterlimit:4;stroke-dasharray:none"
                         id="rect1019-0"
                         width="86.934525"
                         height="86.934525"
                         x="77.485123"
                         y="49.514881" />
                      <path
                         style="fill:none;stroke:#000000;stroke-width:10;stroke-linecap:round;stroke-linejoin:miter;stroke-miterlimit:4;stroke-dasharray:none;stroke-opacity:1"
                         d="M 45.357142,81.642859 77.48512,49.514881"
                         id="path1036" />
                      <path
                         style="fill:none;stroke:#000000;stroke-width:10;stroke-linecap:round;stroke-linejoin:miter;stroke-miterlimit:4;stroke-dasharray:none;stroke-opacity:1"
                         d="M 45.357142,168.57739 77.485123,136.4494"
                         id="path1046" />
                      <path
                         style="fill:none;stroke:#000000;stroke-width:10;stroke-linecap:round;stroke-linejoin:miter;stroke-miterlimit:4;stroke-dasharray:none;stroke-opacity:1"
                         d="M 132.29167,168.57739 164.41965,136.4494"
                         id="path1048" />
                      <path
                         style="fill:none;stroke:#000000;stroke-width:10;stroke-linecap:round;stroke-linejoin:miter;stroke-miterlimit:4;stroke-dasharray:none;stroke-opacity:1"
                         d="M 132.29167,81.642859 164.41965,49.514881"
                         id="path1050" />
                    </g>
                    <text
                       xml:space="preserve"
                       style="font-size:23.0074px;line-height:1.25;font-family:Rubik;-inkscape-font-specification:Rubik;letter-spacing:0px;word-spacing:0px;stroke-width:19.1727"
                       x="-77.583649"
                       y="64.896034"
                       id="text1201"><tspan
                         sodipodi:role="line"
                         id="tspan1199"
                         x="-77.583649"
                         y="64.896034"
                         style="stroke-width:19.1727">STL</tspan></text>
                  </g>
                  <path
                     style="fill:none;stroke:#000000;stroke-width:0.321629;stroke-linecap:butt;stroke-linejoin:miter;stroke-miterlimit:4;stroke-dasharray:none;stroke-opacity:1;marker-end:url(#Arrow1Lend)"
                     d="m -40.274152,31.966795 h 16.047021"
                     id="path1234" />
                </g>
              </g>
            </g>
          </g>
          <g
             id="g1086" />
          <g
             id="g1088" />
          <g
             id="g1090" />
          <g
             id="g1092" />
          <g
             id="g1094" />
          <g
             id="g1096" />
          <g
             id="g1098" />
          <g
             id="g1100" />
          <g
             id="g1102" />
          <g
             id="g1104" />
          <g
             id="g1106" />
          <g
             id="g1108" />
          <g
             id="g1110" />
          <g
             id="g1112" />
          <g
             id="g1114" />
        </g>
      </g>
    </g>
  </g>
</svg>
