<?xml version="1.0" encoding="UTF-8" standalone="no"?>
<svg
   xmlns:dc="http://purl.org/dc/elements/1.1/"
   xmlns:cc="http://creativecommons.org/ns#"
   xmlns:rdf="http://www.w3.org/1999/02/22-rdf-syntax-ns#"
   xmlns:svg="http://www.w3.org/2000/svg"
   xmlns="http://www.w3.org/2000/svg"
   xmlns:sodipodi="http://sodipodi.sourceforge.net/DTD/sodipodi-0.dtd"
   xmlns:inkscape="http://www.inkscape.org/namespaces/inkscape"
   version="1.1"
   id="svg2"
   xml:space="preserve"
   width="1406.551"
   height="1406.551"
   viewBox="0 0 1406.5511 1406.551"
   sodipodi:docname="Car.svg"
   inkscape:version="1.0.1 (3bc2e813f5, 2020-09-07)"><metadata
     id="metadata8"><rdf:RDF><cc:Work
         rdf:about=""><dc:format>image/svg+xml</dc:format><dc:type
           rdf:resource="http://purl.org/dc/dcmitype/StillImage" /><dc:title></dc:title></cc:Work></rdf:RDF></metadata><defs
     id="defs6"><clipPath
       clipPathUnits="userSpaceOnUse"
       id="clipPath20"><path
         d="M 0,596 H 1185.07 V 0 H 0 Z"
         id="path18" /></clipPath><clipPath
       clipPathUnits="userSpaceOnUse"
       id="clipPath28"><path
         d="M 141.256,548.473 H 1080.94 V 97.9502 H 141.256 Z"
         id="path26" /></clipPath><clipPath
       clipPathUnits="userSpaceOnUse"
       id="clipPath44"><path
         d="m 408.273,537.893 h 83.232 v -79.797 h -83.232 z"
         id="path42" /></clipPath><clipPath
       clipPathUnits="userSpaceOnUse"
       id="clipPath60"><path
         d="m 432.948,435.52 h 33.883 v -32.488 h -33.883 z"
         id="path58" /></clipPath><clipPath
       clipPathUnits="userSpaceOnUse"
       id="clipPath76"><path
         d="M 639.976,541.668 H 892.555 V 434.965 H 639.976 Z"
         id="path74" /></clipPath><clipPath
       clipPathUnits="userSpaceOnUse"
       id="clipPath92"><path
         d="m 892.768,427.093 h 37.679 v -36.124 h -37.679 z"
         id="path90" /></clipPath><clipPath
       clipPathUnits="userSpaceOnUse"
       id="clipPath108"><path
         d="m 945.07,392.856 h 24.181 V 369.671 H 945.07 Z"
         id="path106" /></clipPath><clipPath
       clipPathUnits="userSpaceOnUse"
       id="clipPath124"><path
         d="M 48.5889,326.488 H 187.916 V 195.49 H 48.5889 Z"
         id="path122" /></clipPath><clipPath
       clipPathUnits="userSpaceOnUse"
       id="clipPath280"><path
         d="M 273.342,373.545 H 490.271 V 284.21 H 273.342 Z"
         id="path278" /></clipPath><clipPath
       clipPathUnits="userSpaceOnUse"
       id="clipPath452"><path
         d="m 1052.64,294.865 h 30.09 v -25.151 h -30.09 z"
         id="path450" /></clipPath><clipPath
       clipPathUnits="userSpaceOnUse"
       id="clipPath472"><path
         d="M 79.4419,258.366 H 147.781 V 226.891 H 79.4419 Z"
         id="path470" /></clipPath></defs><sodipodi:namedview
     pagecolor="#ffffff"
     bordercolor="#666666"
     borderopacity="1"
     objecttolerance="10"
     gridtolerance="10"
     guidetolerance="10"
     inkscape:pageopacity="0"
     inkscape:pageshadow="2"
     inkscape:window-width="1920"
     inkscape:window-height="1177"
     id="namedview4"
     inkscape:document-rotation="0"
     showgrid="false"
     inkscape:zoom="0.4980781"
     inkscape:cx="735.94568"
     inkscape:cy="582.75651"
     inkscape:window-x="-8"
     inkscape:window-y="-8"
     inkscape:window-maximized="1"
     inkscape:current-layer="g10" /><g
     id="g10"
     inkscape:groupmode="layer"
     inkscape:label="Car 07"
     transform="matrix(1.3333333,0,0,-1.3333333,-61.661763,731.29729)"><g
       id="g16"
       clip-path="url(#clipPath20)"
       transform="translate(0,-277.50001)"><g
         id="g22"><g
           id="g24" /><g
           id="g36"><g
             clip-path="url(#clipPath28)"
             opacity="0.399994"
             id="g34"><g
               transform="translate(592.478,142.6807)"
               id="g32"><path
                 d="m 0,0 c 0,0 -467.648,129.403 -450.776,197.339 16.871,67.932 318.309,-46.431 348.677,70.598 30.37,117.03 -60.349,208.502 259.824,62.844 C 566.018,145.035 683.6,-159.594 0,0"
                 style="fill:#995b5b;fill-opacity:1;fill-rule:nonzero;stroke:none"
                 id="path30" /></g></g></g></g><g
         id="g38"><g
           id="g40" /><g
           id="g52"><g
             clip-path="url(#clipPath44)"
             opacity="0.399994"
             id="g50"><g
               transform="translate(491.5054,497.9951)"
               id="g48"><path
                 d="m 0,0 c 0,-22.035 -18.632,-39.899 -41.615,-39.899 -22.985,0 -41.617,17.864 -41.617,39.899 0,22.035 18.632,39.897 41.617,39.897 C -18.632,39.897 0,22.035 0,0"
                 style="fill:#995b5b;fill-opacity:1;fill-rule:nonzero;stroke:none"
                 id="path46" /></g></g></g></g><g
         id="g54"><g
           id="g56" /><g
           id="g68"><g
             clip-path="url(#clipPath60)"
             opacity="0.399994"
             id="g66"><g
               transform="translate(466.8306,419.2754)"
               id="g64"><path
                 d="m 0,0 c 0,-8.971 -7.586,-16.243 -16.94,-16.243 -9.359,0 -16.943,7.272 -16.943,16.243 0,8.971 7.584,16.244 16.943,16.244 C -7.586,16.244 0,8.971 0,0"
                 style="fill:#995b5b;fill-opacity:1;fill-rule:nonzero;stroke:none"
                 id="path62" /></g></g></g></g><g
         id="g70"><g
           id="g72" /><g
           id="g84"><g
             clip-path="url(#clipPath76)"
             opacity="0.399994"
             id="g82"><g
               transform="translate(639.9761,541.668)"
               id="g80"><path
                 d="M 0,0 C 0,0 264.717,-78.72 252.146,-103.521 239.575,-128.323 0,0 0,0"
                 style="fill:#995b5b;fill-opacity:1;fill-rule:nonzero;stroke:none"
                 id="path78" /></g></g></g></g><g
         id="g86"><g
           id="g88" /><g
           id="g100"><g
             clip-path="url(#clipPath92)"
             opacity="0.399994"
             id="g98"><g
               transform="translate(930.4468,409.0322)"
               id="g96"><path
                 d="m 0,0 c 0,-9.977 -8.434,-18.063 -18.84,-18.063 -10.404,0 -18.839,8.086 -18.839,18.063 0,9.974 8.435,18.061 18.839,18.061 C -8.434,18.061 0,9.974 0,0"
                 style="fill:#995b5b;fill-opacity:1;fill-rule:nonzero;stroke:none"
                 id="path94" /></g></g></g></g><g
         id="g102"><g
           id="g104" /><g
           id="g116"><g
             clip-path="url(#clipPath108)"
             opacity="0.399994"
             id="g114"><g
               transform="translate(969.2515,381.2646)"
               id="g112"><path
                 d="m 0,0 c 0,-6.402 -5.412,-11.594 -12.092,-11.594 -6.675,0 -12.09,5.192 -12.09,11.594 0,6.401 5.415,11.592 12.09,11.592 C -5.412,11.592 0,6.401 0,0"
                 style="fill:#995b5b;fill-opacity:1;fill-rule:nonzero;stroke:none"
                 id="path110" /></g></g></g></g><g
         id="g118"><g
           id="g120" /><g
           id="g132"><g
             clip-path="url(#clipPath124)"
             opacity="0.399994"
             id="g130"><g
               transform="translate(48.5889,326.4883)"
               id="g128"><path
                 d="M 0,0 C 0,0 81.685,-139.318 130.826,-130.605 179.968,-121.892 0,0 0,0"
                 style="fill:#706969;fill-opacity:1;fill-rule:nonzero;stroke:none"
                 id="path126" /></g></g></g></g><g
         id="g258"
         transform="translate(1008.5933,285.4561)"><path
           d="m 0,0 c 0,0 21.735,25.236 50.646,24.34 0,0 15.076,5.09 23.491,-0.521 8.414,-5.612 -3.309,-15.839 6.17,-29.803 9.478,-13.967 16.638,-26.171 5.887,-27.987 0,0 18.305,-50.01 -7.134,-55.312 C 53.62,-94.585 43.847,-72.326 41.907,-65.592 39.966,-58.858 0,0 0,0"
           style="fill:#303030;fill-opacity:1;fill-rule:nonzero;stroke:none"
           id="path260" /></g><g
         id="g262"
         transform="translate(484.3989,373.5449)"><path
           d="M 0,0 C 0,0 75.196,27.963 177.613,12.585 280.029,-2.792 292.891,-6.46 294.357,-24.99 c 1.468,-18.53 -341.046,-81.107 -341.046,-81.107 l -72.328,-9.082 -71.078,22.351 z"
           style="fill:#303030;fill-opacity:1;fill-rule:nonzero;stroke:none"
           id="path264" /></g><g
         id="g266"
         transform="translate(187.9219,122.4443)"><path
           d="m 0,0 c 9.221,7.349 35.427,5.404 35.427,5.404 l 108.775,6.082 c 20.819,5.369 32.919,3.873 32.919,3 0,-0.872 473.028,0.986 473.028,0.986 22.038,10.664 50.999,-3.68 50.999,-3.68 l 119.904,15.533 15.367,-5.714 c 0,0 17.289,10.37 19.88,10.804 2.592,0.431 8.646,38.03 9.079,36.304 0.428,-1.731 -40.684,70.241 -40.684,70.241 L 761.655,168.554 676.618,156.02 634.59,78.347 570.628,38.466 182.526,34.862 l 10.371,66.912 -99.4,58.378 -104.591,-44.2 -24.2,-81.09 25.066,-30.448 z"
           style="fill:#000000;fill-opacity:1;fill-rule:nonzero;stroke:none"
           id="path268" /></g><g
         id="g270"
         transform="translate(273.3423,284.21)"><path
           d="m 0,0 c 88.234,45.604 209.81,89.335 209.81,89.335 0,0 18.174,-7.25 19.329,-7.25 1.151,0 -173.011,-75.538 -173.011,-75.538 z"
           style="fill:#b5eeff;fill-opacity:1;fill-rule:nonzero;stroke:none"
           id="path272" /></g><g
         id="g274"><g
           id="g276" /><g
           id="g296"><g
             clip-path="url(#clipPath280)"
             opacity="0.5"
             id="g294"><g
               transform="translate(273.3423,284.21)"
               id="g284"><path
                 d="M 0,0 42.664,4.977 55.242,26.59 C 36.323,18.019 17.505,9.045 0,0"
                 style="fill:#ffffff;fill-opacity:1;fill-rule:nonzero;stroke:none"
                 id="path282" /></g><g
               transform="translate(490.271,370.7393)"
               id="g288"><path
                 d="m 0,0 c -3.852,1.502 -7.119,2.806 -7.119,2.806 0,0 -14.976,-5.388 -38.213,-14.348 l -14.222,-24.442 c 19.744,8.598 38.415,16.75 51.773,22.613 z"
                 style="fill:#ffffff;fill-opacity:1;fill-rule:nonzero;stroke:none"
                 id="path286" /></g><g
               transform="translate(413.0742,346.6758)"
               id="g292"><path
                 d="M 0,0 C -15.679,-6.282 -32.99,-13.401 -50.878,-21.072 L -66.95,-48.693 c 12.75,5.536 31.52,13.687 51.679,22.451 z"
                 style="fill:#ffffff;fill-opacity:1;fill-rule:nonzero;stroke:none"
                 id="path290" /></g></g></g></g><g
         id="g298"
         transform="translate(102.9272,159.4697)"><path
           d="m 0,0 c -10.229,10.084 -20.888,6.482 -28.091,12.965 -7.206,6.482 -6.772,9.195 -9.654,8.703 -2.882,-0.49 -15.991,-7.119 -13.544,-21.668 2.449,-14.549 0.865,-25.354 28.238,-27.082 27.369,-1.731 106.172,-10.951 108.046,-9.943 -7.058,5.187 -9.147,17.074 -9.147,17.074 L 22.619,-3.314 Z"
           style="fill:#000000;fill-opacity:1;fill-rule:nonzero;stroke:none"
           id="path300" /></g><g
         id="g302"
         transform="translate(360.2905,139.5186)"><path
           d="m 0,0 c -0.215,-9.439 -5.692,-17.041 -8.571,-18.138 173.88,9.493 424.98,11.87 491.102,8.198 -1.51,3.456 -2.804,11.235 -2.804,11.235 l -33.495,11.668 z"
           style="fill:#000000;fill-opacity:1;fill-rule:nonzero;stroke:none"
           id="path304" /></g><g
         id="g306"
         transform="translate(1087.2974,193.4678)"><path
           d="m 0,0 c 9.509,-0.864 13.541,-4.035 13.541,-4.035 -4.178,-23.192 -15.129,-37.309 -38.896,-42.496 -23.772,-5.188 -51.2,-10.721 -59.312,-8.53 -8.107,2.191 6.344,11.363 6.344,11.363 10.037,-0.24 25.686,5.9 25.686,5.9 l 21.088,23.392 z"
           style="fill:#000000;fill-opacity:1;fill-rule:nonzero;stroke:none"
           id="path308" /></g><g
         id="g310"
         transform="translate(52.6846,181.1143)"><path
           d="m 0,0 c 1.403,-6.807 13.217,-17.611 13.217,-17.611 l 31.119,-6.197 46.532,64.542 z"
           style="fill:#303030;fill-opacity:1;fill-rule:nonzero;stroke:none"
           id="path312" /></g><g
         id="g314"
         transform="translate(62.3091,167.0537)"><path
           d="M 0,0 C 2.039,-2.126 3.592,-3.551 3.592,-3.551 L 34.711,-9.747 81.243,54.795 C 81.243,54.795 26.614,18.039 0,0"
           style="fill:#191817;fill-opacity:1;fill-rule:nonzero;stroke:none"
           id="path316" /></g><g
         id="g318"
         transform="translate(1063.812,173.0117)"><path
           d="m 0,0 c 14.696,-0.432 22.154,-0.288 29.878,9.652 7.723,9.94 5.852,17.143 2.249,18.871 -3.603,1.729 -12.386,3.89 -23.191,0 C -1.87,24.634 0,0 0,0"
           style="fill:#4c4c4c;fill-opacity:1;fill-rule:nonzero;stroke:none"
           id="path320" /></g><g
         id="g322"
         transform="translate(1088.0894,189.9736)"><path
           d="M 0,0 C 3.458,9.724 4.539,12.317 7.129,10.048 9.725,7.78 9.399,0.509 4.539,-6.067 -0.325,-12.641 -3.997,-13.073 -3.997,-13.073 -2.487,-5.185 0,0 0,0"
           style="fill:#303030;fill-opacity:1;fill-rule:nonzero;stroke:none"
           id="path324" /></g><g
         id="g326"
         transform="translate(350.0054,177.9658)"><path
           d="m 0,0 c 0,-44.405 -35.996,-80.404 -80.401,-80.404 -44.405,0 -80.407,35.999 -80.407,80.404 0,44.405 36.002,80.405 80.407,80.405 C -35.996,80.405 0,44.405 0,0"
           style="fill:#131313;fill-opacity:1;fill-rule:nonzero;stroke:none"
           id="path328" /></g><g
         id="g330"
         transform="translate(346.0728,177.9658)"><path
           d="m 0,0 c 0,-42.234 -34.236,-76.47 -76.469,-76.47 -42.234,0 -76.469,34.236 -76.469,76.47 0,42.234 34.235,76.471 76.469,76.471 C -34.236,76.471 0,42.234 0,0"
           style="fill:#303030;fill-opacity:1;fill-rule:nonzero;stroke:none"
           id="path332" /></g><g
         id="g334"
         transform="translate(334.5312,177.9658)"><path
           d="m 0,0 c 0,-35.857 -29.068,-64.926 -64.927,-64.926 -35.859,0 -64.931,29.069 -64.931,64.926 0,35.858 29.072,64.927 64.931,64.927 C -29.068,64.927 0,35.858 0,0"
           style="fill:#666666;fill-opacity:1;fill-rule:nonzero;stroke:none"
           id="path336" /></g><g
         id="g338"
         transform="translate(330.0317,177.9658)"><path
           d="m 0,0 c 0,-33.374 -27.051,-60.43 -60.428,-60.43 -33.377,0 -60.429,27.056 -60.429,60.43 0,33.376 27.052,60.431 60.429,60.431 C -27.051,60.431 0,33.376 0,0"
           style="fill:#5a5a5a;fill-opacity:1;fill-rule:nonzero;stroke:none"
           id="path340" /></g><g
         id="g342"
         transform="translate(322.7251,177.9658)"><path
           d="m 0,0 c 0,-29.336 -23.782,-53.122 -53.121,-53.122 -29.34,0 -53.123,23.786 -53.123,53.122 0,29.338 23.783,53.125 53.123,53.125 C -23.782,53.125 0,29.338 0,0"
           style="fill:#303030;fill-opacity:1;fill-rule:nonzero;stroke:none"
           id="path344" /></g><g
         id="g346"
         transform="translate(315.854,177.9658)"><path
           d="m 0,0 c 0,-25.544 -20.707,-46.251 -46.25,-46.251 -25.547,0 -46.255,20.707 -46.255,46.251 0,25.542 20.708,46.253 46.255,46.253 C -20.707,46.253 0,25.542 0,0"
           style="fill:#5a5a5a;fill-opacity:1;fill-rule:nonzero;stroke:none"
           id="path348" /></g><g
         id="g350"
         transform="translate(269.6025,226.8906)"><path
           d="m 0,0 c 0,0 0.324,-0.766 0.739,-2.104 0.431,-1.336 0.957,-3.248 1.419,-5.542 0.466,-2.292 0.876,-4.968 1.15,-7.835 0.141,-1.433 0.253,-2.915 0.316,-4.42 0.084,-1.505 0.095,-3.034 0.116,-4.563 -0.021,-1.528 -0.027,-3.057 -0.112,-4.561 -0.054,-1.506 -0.176,-2.988 -0.311,-4.42 C 3.045,-36.313 2.636,-38.986 2.168,-41.28 1.704,-43.575 1.178,-45.485 0.744,-46.821 0.327,-48.161 0,-48.925 0,-48.925 c 0,0 -0.328,0.764 -0.744,2.104 -0.434,1.336 -0.96,3.246 -1.425,5.541 -0.467,2.294 -0.876,4.967 -1.148,7.835 -0.135,1.432 -0.258,2.914 -0.311,4.42 -0.085,1.504 -0.091,3.033 -0.112,4.561 0.021,1.529 0.032,3.058 0.116,4.563 0.062,1.505 0.175,2.987 0.315,4.42 0.275,2.867 0.684,5.543 1.151,7.835 0.461,2.294 0.987,4.206 1.419,5.542 C -0.324,-0.766 0,0 0,0"
           style="fill:#303030;fill-opacity:1;fill-rule:nonzero;stroke:none"
           id="path352" /></g><g
         id="g354"
         transform="translate(227.2349,202.4287)"><path
           d="m 0,0 c 0,0 0.825,-0.102 2.19,-0.411 1.374,-0.294 3.292,-0.796 5.509,-1.543 2.219,-0.742 4.741,-1.726 7.36,-2.921 1.313,-0.595 2.651,-1.237 3.985,-1.937 1.345,-0.68 2.675,-1.434 4.011,-2.179 1.313,-0.784 2.633,-1.553 3.896,-2.38 1.275,-0.797 2.495,-1.646 3.67,-2.479 2.347,-1.669 4.459,-3.36 6.211,-4.913 1.753,-1.548 3.145,-2.96 4.087,-4.004 0.95,-1.031 1.449,-1.694 1.449,-1.694 0,0 -0.826,0.099 -2.192,0.406 -1.376,0.291 -3.294,0.792 -5.513,1.536 -2.22,0.742 -4.742,1.725 -7.36,2.924 -1.308,0.601 -2.651,1.235 -3.983,1.941 -1.344,0.677 -2.673,1.437 -4.007,2.183 -1.312,0.783 -2.63,1.558 -3.893,2.383 -1.271,0.807 -2.497,1.645 -3.669,2.483 -2.346,1.671 -4.458,3.363 -6.209,4.913 -1.755,1.547 -3.148,2.958 -4.092,4 C 0.5,-0.662 0,0 0,0"
           style="fill:#303030;fill-opacity:1;fill-rule:nonzero;stroke:none"
           id="path356" /></g><g
         id="g358"
         transform="translate(227.2349,153.5068)"><path
           d="m 0,0 c 0,0 0.5,0.664 1.45,1.693 0.944,1.04 2.337,2.453 4.092,3.998 1.751,1.552 3.863,3.243 6.209,4.913 1.172,0.839 2.398,1.677 3.669,2.484 1.263,0.824 2.581,1.6 3.893,2.382 1.334,0.746 2.663,1.506 4.007,2.184 1.332,0.705 2.675,1.339 3.984,1.94 2.617,1.199 5.139,2.18 7.359,2.924 2.219,0.744 4.137,1.243 5.513,1.536 1.366,0.307 2.192,0.407 2.192,0.407 0,0 -0.499,-0.665 -1.449,-1.695 C 39.977,21.721 38.585,20.309 36.832,18.762 35.08,17.209 32.968,15.518 30.621,13.848 29.446,13.016 28.226,12.167 26.951,11.37 25.688,10.543 24.368,9.774 23.055,8.99 21.719,8.245 20.389,7.491 19.044,6.811 17.71,6.113 16.371,5.47 15.059,4.875 12.439,3.681 9.918,2.695 7.699,1.953 5.482,1.207 3.564,0.708 2.19,0.41 0.825,0.103 0,0 0,0"
           style="fill:#303030;fill-opacity:1;fill-rule:nonzero;stroke:none"
           id="path360" /></g><g
         id="g362"
         transform="translate(269.6006,129.0469)"><path
           d="m 0,0 c 0,0 -0.324,0.763 -0.739,2.103 -0.431,1.337 -0.957,3.248 -1.419,5.541 -0.466,2.294 -0.876,4.967 -1.149,7.835 -0.14,1.432 -0.253,2.914 -0.315,4.418 -0.084,1.506 -0.095,3.035 -0.117,4.563 0.02,1.529 0.028,3.058 0.111,4.562 0.055,1.506 0.178,2.987 0.311,4.42 0.274,2.868 0.683,5.541 1.15,7.835 0.463,2.292 0.991,4.203 1.425,5.541 0.416,1.338 0.744,2.103 0.744,2.103 0,0 0.327,-0.765 0.744,-2.103 C 1.18,45.48 1.706,43.569 2.17,41.275 2.638,38.983 3.047,36.31 3.319,33.442 3.454,32.009 3.575,30.528 3.63,29.022 3.713,27.518 3.721,25.989 3.742,24.46 3.719,22.932 3.708,21.403 3.625,19.897 3.562,18.393 3.449,16.911 3.309,15.479 3.034,12.611 2.625,9.938 2.159,7.644 1.697,5.351 1.171,3.44 0.741,2.103 0.325,0.763 0,0 0,0"
           style="fill:#303030;fill-opacity:1;fill-rule:nonzero;stroke:none"
           id="path364" /></g><g
         id="g366"
         transform="translate(311.9668,153.5059)"><path
           d="m 0,0 c 0,0 -0.824,0.101 -2.19,0.411 -1.374,0.294 -3.291,0.795 -5.508,1.543 -2.22,0.742 -4.741,1.725 -7.36,2.921 -1.312,0.595 -2.65,1.237 -3.985,1.937 -1.346,0.68 -2.676,1.434 -4.01,2.179 -1.313,0.784 -2.633,1.553 -3.894,2.378 -1.276,0.799 -2.497,1.648 -3.673,2.48 -2.345,1.67 -4.458,3.361 -6.209,4.914 -1.754,1.547 -3.146,2.959 -4.087,4.004 -0.95,1.03 -1.448,1.695 -1.448,1.695 0,0 0.825,-0.1 2.192,-0.407 1.375,-0.293 3.294,-0.792 5.512,-1.536 2.22,-0.744 4.74,-1.725 7.359,-2.924 1.308,-0.601 2.652,-1.236 3.982,-1.94 1.346,-0.679 2.673,-1.438 4.007,-2.185 1.312,-0.783 2.631,-1.559 3.892,-2.384 1.273,-0.807 2.499,-1.642 3.67,-2.481 2.345,-1.671 4.458,-3.365 6.21,-4.913 1.755,-1.547 3.146,-2.958 4.09,-4 C -0.5,0.662 0,0 0,0"
           style="fill:#303030;fill-opacity:1;fill-rule:nonzero;stroke:none"
           id="path368" /></g><g
         id="g370"
         transform="translate(311.9683,202.4258)"><path
           d="m 0,0 c 0,0 -0.5,-0.662 -1.451,-1.692 -0.943,-1.042 -2.335,-2.452 -4.091,-3.998 -1.751,-1.551 -3.863,-3.243 -6.209,-4.914 -1.17,-0.836 -2.398,-1.675 -3.669,-2.482 -1.261,-0.824 -2.58,-1.6 -3.893,-2.382 -1.334,-0.747 -2.661,-1.506 -4.007,-2.185 -1.33,-0.705 -2.675,-1.34 -3.982,-1.939 -2.619,-1.199 -5.139,-2.182 -7.36,-2.924 -2.218,-0.744 -4.137,-1.243 -5.512,-1.536 -1.366,-0.307 -2.192,-0.406 -2.192,-0.406 0,0 0.499,0.664 1.449,1.694 0.942,1.044 2.333,2.457 4.087,4.004 1.752,1.553 3.864,3.244 6.211,4.913 1.173,0.833 2.394,1.68 3.67,2.479 1.262,0.826 2.582,1.596 3.896,2.378 1.335,0.747 2.664,1.501 4.01,2.18 1.335,0.697 2.673,1.34 3.984,1.936 2.62,1.195 5.141,2.18 7.361,2.92 2.217,0.749 4.134,1.248 5.508,1.543 C -0.824,-0.101 0,0 0,0"
           style="fill:#303030;fill-opacity:1;fill-rule:nonzero;stroke:none"
           id="path372" /></g><g
         id="g374"
         transform="translate(280.5728,177.9658)"><path
           d="m 0,0 c 0,-6.051 -4.907,-10.959 -10.958,-10.959 -6.054,0 -10.959,4.908 -10.959,10.959 0,6.051 4.905,10.959 10.959,10.959 C -4.907,10.959 0,6.051 0,0"
           style="fill:#303030;fill-opacity:1;fill-rule:nonzero;stroke:none"
           id="path376" /></g><g
         id="g378"
         transform="translate(276.2515,177.9658)"><path
           d="m 0,0 c 0,-3.666 -2.972,-6.638 -6.637,-6.638 -3.666,0 -6.637,2.972 -6.637,6.638 0,3.666 2.971,6.638 6.637,6.638 C -2.972,6.638 0,3.666 0,0"
           style="fill:#5a5a5a;fill-opacity:1;fill-rule:nonzero;stroke:none"
           id="path380" /></g><g
         id="g382"
         transform="translate(1016.8013,177.9658)"><path
           d="m 0,0 c 0,-44.405 -35.996,-80.404 -80.401,-80.404 -44.406,0 -80.407,35.999 -80.407,80.404 0,44.405 36.001,80.405 80.407,80.405 C -35.996,80.405 0,44.405 0,0"
           style="fill:#131313;fill-opacity:1;fill-rule:nonzero;stroke:none"
           id="path384" /></g><g
         id="g386"
         transform="translate(1012.8687,177.9658)"><path
           d="m 0,0 c 0,-42.234 -34.236,-76.47 -76.469,-76.47 -42.235,0 -76.469,34.236 -76.469,76.47 0,42.234 34.234,76.471 76.469,76.471 C -34.236,76.471 0,42.234 0,0"
           style="fill:#303030;fill-opacity:1;fill-rule:nonzero;stroke:none"
           id="path388" /></g><g
         id="g390"
         transform="translate(1001.3276,177.9658)"><path
           d="m 0,0 c 0,-35.857 -29.068,-64.926 -64.928,-64.926 -35.859,0 -64.93,29.069 -64.93,64.926 0,35.858 29.071,64.927 64.93,64.927 C -29.068,64.927 0,35.858 0,0"
           style="fill:#666666;fill-opacity:1;fill-rule:nonzero;stroke:none"
           id="path392" /></g><g
         id="g394"
         transform="translate(996.8276,177.9658)"><path
           d="m 0,0 c 0,-33.374 -27.052,-60.43 -60.428,-60.43 -33.377,0 -60.43,27.056 -60.43,60.43 0,33.376 27.053,60.431 60.43,60.431 C -27.052,60.431 0,33.376 0,0"
           style="fill:#5a5a5a;fill-opacity:1;fill-rule:nonzero;stroke:none"
           id="path396" /></g><g
         id="g398"
         transform="translate(989.521,177.9658)"><path
           d="m 0,0 c 0,-29.336 -23.782,-53.122 -53.121,-53.122 -29.34,0 -53.123,23.786 -53.123,53.122 0,29.338 23.783,53.125 53.123,53.125 C -23.782,53.125 0,29.338 0,0"
           style="fill:#303030;fill-opacity:1;fill-rule:nonzero;stroke:none"
           id="path400" /></g><g
         id="g402"
         transform="translate(982.6499,177.9658)"><path
           d="m 0,0 c 0,-25.544 -20.707,-46.251 -46.25,-46.251 -25.548,0 -46.255,20.707 -46.255,46.251 0,25.542 20.707,46.253 46.255,46.253 C -20.707,46.253 0,25.542 0,0"
           style="fill:#5a5a5a;fill-opacity:1;fill-rule:nonzero;stroke:none"
           id="path404" /></g><g
         id="g406"
         transform="translate(936.3989,226.8906)"><path
           d="m 0,0 c 0,0 0.324,-0.766 0.739,-2.104 0.431,-1.336 0.957,-3.248 1.418,-5.542 0.467,-2.292 0.875,-4.968 1.151,-7.835 0.139,-1.433 0.253,-2.915 0.315,-4.42 0.084,-1.505 0.096,-3.034 0.115,-4.563 -0.019,-1.528 -0.026,-3.057 -0.11,-4.561 -0.055,-1.506 -0.177,-2.988 -0.312,-4.42 C 3.044,-36.313 2.636,-38.986 2.168,-41.28 1.703,-43.575 1.177,-45.485 0.742,-46.821 0.327,-48.161 0,-48.925 0,-48.925 c 0,0 -0.328,0.764 -0.744,2.104 -0.435,1.336 -0.961,3.246 -1.426,5.541 -0.468,2.294 -0.877,4.967 -1.147,7.835 -0.136,1.432 -0.258,2.914 -0.313,4.42 -0.084,1.504 -0.09,3.033 -0.111,4.561 0.021,1.529 0.033,3.058 0.116,4.563 0.062,1.505 0.176,2.987 0.315,4.42 0.276,2.867 0.685,5.543 1.151,7.835 0.462,2.294 0.988,4.206 1.419,5.542 C -0.326,-0.766 0,0 0,0"
           style="fill:#303030;fill-opacity:1;fill-rule:nonzero;stroke:none"
           id="path408" /></g><g
         id="g410"
         transform="translate(894.0308,202.4287)"><path
           d="m 0,0 c 0,0 0.824,-0.102 2.19,-0.411 1.373,-0.294 3.291,-0.796 5.508,-1.543 2.22,-0.742 4.742,-1.726 7.362,-2.921 1.311,-0.595 2.65,-1.237 3.985,-1.937 1.344,-0.68 2.674,-1.434 4.01,-2.179 1.313,-0.784 2.632,-1.553 3.895,-2.38 1.276,-0.797 2.496,-1.646 3.67,-2.479 2.348,-1.669 4.46,-3.36 6.211,-4.913 1.755,-1.548 3.146,-2.96 4.088,-4.004 0.95,-1.031 1.449,-1.694 1.449,-1.694 0,0 -0.827,0.099 -2.193,0.406 -1.375,0.291 -3.294,0.792 -5.512,1.536 -2.22,0.742 -4.742,1.725 -7.361,2.924 -1.307,0.601 -2.651,1.235 -3.983,1.941 -1.343,0.677 -2.672,1.437 -4.007,2.183 -1.311,0.783 -2.629,1.558 -3.892,2.383 -1.272,0.807 -2.497,1.645 -3.669,2.483 -2.346,1.671 -4.457,3.363 -6.21,4.913 -1.755,1.547 -3.146,2.958 -4.091,4 C 0.499,-0.662 0,0 0,0"
           style="fill:#303030;fill-opacity:1;fill-rule:nonzero;stroke:none"
           id="path412" /></g><g
         id="g414"
         transform="translate(894.0308,153.5068)"><path
           d="m 0,0 c 0,0 0.499,0.664 1.45,1.693 0.945,1.04 2.336,2.453 4.091,3.998 1.753,1.552 3.864,3.243 6.21,4.913 1.172,0.839 2.397,1.677 3.669,2.484 1.263,0.824 2.581,1.6 3.892,2.382 1.335,0.746 2.664,1.506 4.007,2.184 1.332,0.705 2.676,1.339 3.985,1.94 2.617,1.199 5.139,2.18 7.359,2.924 2.218,0.744 4.137,1.243 5.512,1.536 1.366,0.307 2.193,0.407 2.193,0.407 0,0 -0.499,-0.665 -1.449,-1.695 C 39.977,21.721 38.586,20.309 36.831,18.762 35.08,17.209 32.968,15.518 30.62,13.848 29.446,13.016 28.226,12.167 26.95,11.37 25.687,10.543 24.368,9.774 23.055,8.99 21.719,8.245 20.389,7.491 19.045,6.811 17.71,6.113 16.37,5.47 15.06,4.875 12.438,3.681 9.918,2.695 7.698,1.953 5.481,1.207 3.563,0.708 2.19,0.41 0.824,0.103 0,0 0,0"
           style="fill:#303030;fill-opacity:1;fill-rule:nonzero;stroke:none"
           id="path416" /></g><g
         id="g418"
         transform="translate(936.397,129.0469)"><path
           d="m 0,0 c 0,0 -0.324,0.763 -0.739,2.103 -0.432,1.337 -0.957,3.248 -1.419,5.541 -0.467,2.294 -0.876,4.967 -1.15,7.835 -0.139,1.432 -0.253,2.914 -0.315,4.418 -0.083,1.506 -0.095,3.035 -0.117,4.563 0.021,1.529 0.028,3.058 0.111,4.562 0.056,1.506 0.178,2.987 0.312,4.42 0.272,2.868 0.681,5.541 1.149,7.835 0.463,2.292 0.991,4.203 1.426,5.541 0.416,1.338 0.744,2.103 0.744,2.103 0,0 0.327,-0.765 0.742,-2.103 C 1.179,45.48 1.705,43.569 2.17,41.275 2.638,38.983 3.046,36.31 3.318,33.442 3.453,32.009 3.573,30.528 3.63,29.022 3.713,27.518 3.721,25.989 3.74,24.46 3.719,22.932 3.707,21.403 3.623,19.897 3.561,18.393 3.448,16.911 3.309,15.479 3.033,12.611 2.624,9.938 2.158,7.644 1.696,5.351 1.171,3.44 0.741,2.103 0.324,0.763 0,0 0,0"
           style="fill:#303030;fill-opacity:1;fill-rule:nonzero;stroke:none"
           id="path420" /></g><g
         id="g422"
         transform="translate(978.7622,153.5059)"><path
           d="m 0,0 c 0,0 -0.824,0.101 -2.19,0.411 -1.374,0.294 -3.291,0.795 -5.508,1.543 -2.22,0.742 -4.741,1.725 -7.36,2.921 -1.312,0.595 -2.65,1.237 -3.984,1.937 -1.347,0.68 -2.676,1.434 -4.011,2.179 -1.313,0.784 -2.634,1.553 -3.893,2.378 -1.277,0.799 -2.498,1.648 -3.673,2.48 -2.346,1.67 -4.459,3.361 -6.21,4.914 -1.753,1.547 -3.146,2.959 -4.087,4.004 -0.95,1.03 -1.447,1.695 -1.447,1.695 0,0 0.825,-0.1 2.19,-0.407 1.376,-0.293 3.295,-0.792 5.514,-1.536 2.219,-0.744 4.739,-1.725 7.358,-2.924 1.309,-0.601 2.653,-1.236 3.983,-1.94 1.345,-0.679 2.672,-1.438 4.006,-2.185 1.313,-0.783 2.631,-1.559 3.892,-2.384 1.273,-0.807 2.499,-1.642 3.67,-2.481 2.345,-1.671 4.458,-3.365 6.21,-4.913 1.756,-1.547 3.146,-2.958 4.091,-4 C -0.5,0.662 0,0 0,0"
           style="fill:#303030;fill-opacity:1;fill-rule:nonzero;stroke:none"
           id="path424" /></g><g
         id="g426"
         transform="translate(978.7632,202.4258)"><path
           d="m 0,0 c 0,0 -0.499,-0.662 -1.45,-1.692 -0.943,-1.042 -2.335,-2.452 -4.091,-3.998 -1.752,-1.551 -3.863,-3.243 -6.209,-4.914 -1.171,-0.836 -2.398,-1.675 -3.67,-2.482 -1.261,-0.824 -2.578,-1.6 -3.892,-2.382 -1.334,-0.747 -2.662,-1.506 -4.007,-2.185 -1.33,-0.705 -2.674,-1.34 -3.983,-1.939 -2.619,-1.199 -5.139,-2.182 -7.358,-2.924 -2.219,-0.744 -4.138,-1.243 -5.514,-1.536 -1.365,-0.307 -2.19,-0.406 -2.19,-0.406 0,0 0.497,0.664 1.447,1.694 0.942,1.044 2.334,2.457 4.087,4.004 1.753,1.553 3.864,3.244 6.211,4.913 1.174,0.833 2.395,1.68 3.672,2.479 1.26,0.826 2.581,1.596 3.895,2.378 1.334,0.747 2.664,1.501 4.01,2.18 1.334,0.697 2.673,1.34 3.983,1.936 2.621,1.195 5.142,2.18 7.362,2.92 2.216,0.749 4.134,1.248 5.508,1.543 C -0.823,-0.101 0,0 0,0"
           style="fill:#303030;fill-opacity:1;fill-rule:nonzero;stroke:none"
           id="path428" /></g><g
         id="g430"
         transform="translate(947.3687,177.9658)"><path
           d="m 0,0 c 0,-6.051 -4.908,-10.959 -10.959,-10.959 -6.054,0 -10.958,4.908 -10.958,10.959 0,6.051 4.904,10.959 10.958,10.959 C -4.908,10.959 0,6.051 0,0"
           style="fill:#303030;fill-opacity:1;fill-rule:nonzero;stroke:none"
           id="path432" /></g><g
         id="g434"
         transform="translate(943.0474,177.9658)"><path
           d="m 0,0 c 0,-3.666 -2.973,-6.638 -6.638,-6.638 -3.665,0 -6.637,2.972 -6.637,6.638 0,3.666 2.972,6.638 6.637,6.638 C -2.973,6.638 0,3.666 0,0"
           style="fill:#5a5a5a;fill-opacity:1;fill-rule:nonzero;stroke:none"
           id="path436" /></g><g
         id="g438"
         transform="translate(178.7754,139.5186)"><path
           d="M 0,0 C -15.344,68.716 19.449,118.416 80.817,126.413 142.187,134.408 198.374,76.063 181.515,0 l 236.621,2.374 c 175.467,4.324 217.926,2.487 243.106,-1.079 -13.941,68.287 12.791,123.008 80.455,136.209 64.973,12.678 125.206,-48.169 114.188,-121.353 40.951,17.883 48.736,23.37 58.543,82.888 2.609,15.867 -4.899,18.729 -30.613,29.857 -25.716,11.129 -40.951,13.507 -42.893,20.855 9.469,10.38 26.21,20.649 39.542,20.526 -53.697,18.045 -101.596,18.226 -101.596,18.226 -37.171,9.221 -60.939,9.796 -73.905,10.085 -233.882,57.478 -337.224,61.532 -457.47,4.034 -31.294,-14.968 -72.93,-35.393 -96.237,-48.981 -99.9,6.338 -157.091,-12.965 -208.954,-37.601 -51.862,-24.635 -47.434,-24.635 -74.659,-43.866 -1.406,-16.856 6.266,-30.578 6.266,-30.578 38.68,18.692 74.659,26.904 79.739,34.359 C -56.294,61.692 -86.652,24.201 -87.301,17.719 -87.95,11.236 -78.226,2.051 -78.226,2.051 -55.538,0.322 0,0 0,0"
           style="fill:#ff9000;fill-opacity:1;fill-rule:nonzero;stroke:none"
           id="path440" /></g><g
         id="g442"
         transform="translate(1084.8472,280.4072)"><path
           d="M 0,0 C -0.866,17.182 -8.861,30.254 -29.819,20.747 -50.78,11.238 -50.78,5.187 -36.845,-0.971 -22.905,-7.128 0.214,-19.877 0,0"
           style="fill:#f2504c;fill-opacity:1;fill-rule:nonzero;stroke:none"
           id="path444" /></g><g
         id="g446"><g
           id="g448" /><g
           id="g460"><g
             clip-path="url(#clipPath452)"
             id="g458"><g
               transform="translate(1064.4497,272.2949)"
               id="g456"><path
                 d="M 0,0 C 6.982,-2.563 13.58,-3.845 17.291,-0.837 20.587,8.548 15.061,21.291 9.268,22.375 2.353,23.673 -12.123,18.27 -11.803,13.517 -11.478,8.763 10.06,3.39 9.92,0.443 9.837,-1.196 5.863,-1.176 0,0"
                 style="fill:#f2504c;fill-opacity:1;fill-rule:nonzero;stroke:none"
                 id="path454" /></g></g></g></g><g
         id="g462"
         transform="translate(79.4419,226.8906)"><path
           d="M 0,0 C 52.87,40.489 97.285,54.952 77.076,23.48 66.993,7.778 53.88,-11.813 48.263,-16.566 56.762,-4.07 50.495,-0.073 39.583,1.224 28.672,2.521 17.76,2.088 0,0"
           style="fill:#b5eeff;fill-opacity:1;fill-rule:nonzero;stroke:none"
           id="path464" /></g><g
         id="g466"><g
           id="g468" /><g
           id="g480"><g
             clip-path="url(#clipPath472)"
             id="g478"><g
               transform="translate(147.0083,256.9619)"
               id="g476"><path
                 d="m 0,0 c -4.631,5.318 -28.388,-5.346 -49.988,-17.344 -5.696,-3.892 -11.58,-8.134 -17.578,-12.727 8.07,0.947 14.715,1.55 20.6,1.81 l 3.582,3.587 C -15.503,-24.747 5.079,-5.834 0,0"
                 style="fill:#b5eeff;fill-opacity:1;fill-rule:nonzero;stroke:none"
                 id="path474" /></g></g></g></g><g
         id="g482"
         transform="translate(119.0254,228.1143)"><path
           d="m 0,0 c 10.912,-1.297 17.178,-5.294 8.679,-17.79 5.617,4.753 18.73,24.345 28.813,40.047 14.415,22.449 -4.061,21.512 -35.024,4.442 13.545,5.511 25.93,9.293 29.73,7.659 C 38.88,31.488 29.927,15.666 14.261,-0.648 13.286,3.458 1.621,10.481 -39.583,-1.224 -21.824,0.864 -10.912,1.298 0,0"
           style="fill:#303030;fill-opacity:1;fill-rule:nonzero;stroke:none"
           id="path484" /></g><g
         id="g486"
         transform="translate(256.5732,270.5898)"><path
           d="m 0,0 c 0,0 32.228,6.249 55.395,-8.347 0,0 55.839,13.799 100.232,4.838 44.393,-8.96 297.656,-7.714 366.556,-2.226 68.901,5.487 92.781,-4.231 136.458,21.08 43.677,25.308 -2.713,51.656 -64.563,41.475 C 532.226,46.64 527.649,51.68 487.898,46.778 448.146,41.877 383.642,35.213 352.187,29.203 320.731,23.194 215.843,10.929 150.454,11.468 85.064,12.007 27.684,25.315 -24.691,8.855 -24.691,8.855 -5.986,9.479 0,0"
           style="fill:#ffb500;fill-opacity:1;fill-rule:nonzero;stroke:none"
           id="path488" /></g><g
         id="g490"
         transform="translate(331.4639,242.415)"><path
           d="m 0,0 c 0,0 137.751,26.693 263.5,36.537 125.749,9.845 163.279,-7.947 163.279,-7.947 0,0 -58.729,-69.498 -119.085,-51.541 -60.357,17.957 -116.597,23.318 -133.806,1.62 -17.208,-21.698 11.809,-63.972 50.984,-38.532 0,0 -43.875,-39.667 -84.279,2.051 C 100.19,-16.094 56.721,8.357 9.808,-10.602 Z"
           style="fill:#303030;fill-opacity:1;fill-rule:nonzero;stroke:none"
           id="path492" /></g><g
         id="g494"
         transform="translate(152.6274,236.6982)"><path
           d="m 0,0 c 0,0 -34.653,-46.762 -28.106,-67.712 6.547,-20.95 38.907,-19.453 44.332,5.237 C 21.65,-37.784 19.128,24.13 0,0"
           style="fill:#fc9b32;fill-opacity:1;fill-rule:nonzero;stroke:none"
           id="path496" /></g><g
         id="g498"
         transform="translate(219.9185,260.5439)"><path
           d="m 0,0 c 0,0 -33.386,-3.521 -41.143,-36.325 0,0 15.891,25.752 41.143,36.325"
           style="fill:#fc9b32;fill-opacity:1;fill-rule:nonzero;stroke:none"
           id="path500" /></g><g
         id="g502"
         transform="translate(50.1377,212.3818)"><path
           d="m 0,0 c 0,0 -1.619,-13.9 3.119,-27.185 0,0 35.412,21.698 67.213,25.127 0,0 -37.783,1.188 -61.352,-14.277 0,0 -7.359,2.991 -8.98,16.335"
           style="fill:#fc9b32;fill-opacity:1;fill-rule:nonzero;stroke:none"
           id="path504" /></g><g
         id="g506"
         transform="translate(802.3442,165.7373)"><path
           d="m 0,0 c -27.426,14.459 -82.809,23.948 -209.506,-5.979 -100.068,-23.638 -194.503,-8.446 -229.786,-1.013 -0.412,-6.258 -1.31,-12.675 -2.762,-19.227 l 236.621,2.374 c 175.467,4.324 217.926,2.488 243.106,-1.079 -13.941,68.287 12.791,123.008 80.455,136.209 6.895,1.347 13.737,1.856 20.446,1.617 C 36.99,118.158 0,0 0,0"
           style="fill:#f54500;fill-opacity:1;fill-rule:nonzero;stroke:none"
           id="path508" /></g><g
         id="g510"
         transform="translate(581.5542,133.4707)"><path
           d="m 0,0 -0.546,1.393 c 57.723,22.701 98.825,87.277 112.587,137.67 12.877,47.146 -17.26,72.99 -20.237,75.401 -9.925,-1.243 -241.102,-30.357 -278.845,-44.908 -38.215,-14.734 -64.974,-58.057 -65.24,-58.492 l -1.277,0.779 c 0.267,0.44 27.283,44.189 65.98,59.11 38.546,14.861 277.101,44.734 279.507,45.035 l 0.3,0.036 0.243,-0.181 c 0.348,-0.264 34.747,-26.887 21.013,-77.174 C 99.627,87.928 58.204,22.889 0,0"
           style="fill:#000000;fill-opacity:1;fill-rule:nonzero;stroke:none"
           id="path512" /></g><g
         id="g514"
         transform="translate(802.3442,333.2295)"><path
           d="m 0,0 c -148.387,43.197 -219.466,46.938 -298.207,27.351 -59.068,-14.696 -119.826,-54.746 -154.132,-69.439 95.064,-5.763 160.773,1.229 226.168,9.98 C -160.771,-23.361 0,0 0,0"
           style="fill:#303030;fill-opacity:1;fill-rule:nonzero;stroke:none"
           id="path516" /></g><g
         id="g518"
         transform="translate(778.7563,332.9443)"><path
           d="m 0,0 c -134.988,38.691 -199.653,42.045 -271.288,24.495 -53.732,-13.163 -109.009,-49.034 -140.214,-62.196 86.482,-5.16 146.262,1.101 205.754,8.937 C -146.257,-20.926 0,0 0,0"
           style="fill:#b5eeff;fill-opacity:1;fill-rule:nonzero;stroke:none"
           id="path520" /></g><g
         id="g522"
         transform="translate(404.9185,313.9746)"><path
           d="m 0,0 c -10.859,-5.687 -20.785,-10.91 -29.382,-14.99 l -3.982,-3.982 c 4.653,-0.259 9.216,-0.481 13.717,-0.676 z"
           style="fill:#ffffff;fill-opacity:1;fill-rule:nonzero;stroke:none"
           id="path524" /></g><g
         id="g526"
         transform="translate(536.3433,363.374)"><path
           d="m 0,0 c -9.624,-1.574 -19.186,-3.562 -28.875,-5.935 -4.068,-0.997 -8.146,-2.123 -12.222,-3.362 -20.326,-20.202 -40.625,-40.432 -60.907,-60.682 11.394,0.075 22.301,0.364 32.868,0.817 C -46.065,-46.135 -23.021,-23.08 0,0"
           style="fill:#ffffff;fill-opacity:1;fill-rule:nonzero;stroke:none"
           id="path528" /></g><g
         id="g530"
         transform="translate(730.9077,345.918)"><path
           d="m 0,0 c -14.595,3.696 -28.272,6.885 -41.173,9.592 -13.67,-13.654 -27.334,-27.311 -41.013,-40.956 19.926,2.781 40.447,5.671 59.134,8.314 C -15.367,-15.367 -7.684,-7.684 0,0"
           style="fill:#ffffff;fill-opacity:1;fill-rule:nonzero;stroke:none"
           id="path532" /></g><g
         id="g534"
         transform="translate(739.9087,327.4102)"><path
           d="M 0,0 C 23.171,3.291 38.848,5.534 38.848,5.534 29.856,8.112 21.186,10.527 12.794,12.796 8.529,8.53 4.264,4.264 0,0"
           style="fill:#ffffff;fill-opacity:1;fill-rule:nonzero;stroke:none"
           id="path536" /></g><g
         id="g538"
         transform="translate(616.7251,310.1104)"><path
           d="m 0,0 c 16.66,16.614 33.311,33.237 49.962,49.861 -38.591,6.825 -70.107,8.848 -99.323,6.951 -23.606,-23.691 -47.242,-47.355 -70.901,-70.996 26.842,2.003 51.73,4.987 76.545,8.254 C -31.943,-4.378 -16.764,-2.313 0,0"
           style="fill:#ffffff;fill-opacity:1;fill-rule:nonzero;stroke:none"
           id="path540" /></g><g
         id="g542"
         transform="translate(415.4038,304.2354)"><path
           d="m 0,0 c 0,0 -29.988,-18.433 -27.881,-26.163 2.107,-7.731 24.303,-11.972 28.793,-7.483 4.489,4.49 2.214,23.322 8.34,30.055 C 15.377,3.143 5.885,4.339 0,0"
           style="fill:#fc6c00;fill-opacity:1;fill-rule:nonzero;stroke:none"
           id="path544" /></g><g
         id="g546"
         transform="translate(422.2432,306.7646)"><path
           d="m 0,0 c -0.144,-0.174 -0.291,-0.35 -0.457,-0.53 -6.125,-6.733 -3.85,-25.566 -8.339,-30.055 -3.678,-3.678 -19.24,-1.493 -25.901,3.669 -0.146,-0.637 -0.171,-1.235 -0.024,-1.776 2.108,-7.731 24.304,-11.972 28.793,-7.483 4.49,4.489 2.215,23.321 8.341,30.055 C 6.34,-1.804 3.844,0.233 0,0"
           style="fill:#db5f0b;fill-opacity:1;fill-rule:nonzero;stroke:none"
           id="path548" /></g><g
         id="g550"
         transform="translate(432.9004,329.2979)"><path
           d="m 0,0 c 0,0 -23.941,0.899 -32.795,-11.197 -8.855,-12.095 4.804,-24.066 25.035,-22.945 20.231,1.123 29.296,7 28.193,18.652 C 19.33,-3.839 7.087,-0.326 0,0"
           style="fill:#303030;fill-opacity:1;fill-rule:nonzero;stroke:none"
           id="path552" /></g><g
         id="g554"
         transform="translate(427.2598,299.6465)"><path
           d="M 0,0 C -17.482,-0.97 -30.044,7.84 -27.424,18.055 -35.692,6.098 -22.126,-5.599 -2.12,-4.49 14.692,-3.558 23.767,0.673 25.731,8.758 21.824,3.573 13.362,0.74 0,0"
           style="fill:#232320;fill-opacity:1;fill-rule:nonzero;stroke:none"
           id="path556" /></g><g
         id="g558"
         transform="translate(1093.2036,238.5576)"><path
           d="m 0,0 c 2.608,15.867 -4.899,18.729 -30.613,29.857 -10.305,4.459 -18.894,7.505 -25.652,10.038 16.894,-11.139 42.494,-18.235 45.791,-42.875 4.055,-30.303 -37.724,-54.995 -37.724,-54.995 -10.562,49.033 -38.85,72.397 -56.278,82.461 32.158,-21.287 52.772,-61.95 45.933,-107.374 C -17.592,-65.005 -9.808,-59.518 0,0"
           style="fill:#f54500;fill-opacity:1;fill-rule:nonzero;stroke:none"
           id="path560" /></g><g
         id="g562"
         transform="translate(1016.5991,254.4365)"><path
           d="M 0,0 C 0,0 29.904,-22.603 29.654,-46.545 29.403,-70.488 56.839,-53.776 57.088,-31.829 57.338,-9.884 22.627,20.795 0.202,17.553 -22.222,14.31 0,0 0,0"
           style="fill:#fc9b32;fill-opacity:1;fill-rule:nonzero;stroke:none"
           id="path564" /></g><g
         id="g566"
         transform="translate(935.269,287.0303)"><path
           d="M 0,0 C 0,0 32.417,0.797 58.608,-17.325 58.608,-17.325 44.394,6.562 0,0"
           style="fill:#fc9b32;fill-opacity:1;fill-rule:nonzero;stroke:none"
           id="path568" /></g><g
         id="g570"
         transform="translate(895.5503,335.8359)"><path
           d="m 0,0 c 0,0 36.663,-2.244 62.102,-11.41 0,0 48.305,0.935 80.642,-11.036 0,0 -48.47,9.726 -80.081,5.425 0,0 -35.914,16.647 -62.663,17.021"
           style="fill:#fc9b32;fill-opacity:1;fill-rule:nonzero;stroke:none"
           id="path572" /></g></g></g></svg>
